<?xml version="1.0" encoding="UTF-8"?>
<svg width="80px" height="80px" viewBox="0 0 80 80" version="1.1" xmlns="http://www.w3.org/2000/svg" xmlns:xlink="http://www.w3.org/1999/xlink">
    <!-- Generator: Sketch 57.1 (83088) - https://sketch.com -->
    <title>Group Copy 4</title>
    <desc>Created with Sketch.</desc>
    <g id="Page-1" stroke="none" stroke-width="1" fill="none" fill-rule="evenodd">
        <g id="Artboard" transform="translate(-69.000000, -496.000000)">
            <g id="Group-Copy-4" transform="translate(69.000000, 496.000000)">
                <rect id="Rectangle" fill="#05B300" x="0" y="0" width="80" height="80" rx="6"></rect>
                <g id="volume-regular" transform="translate(16.000000, 21.000000)" fill="#FFFFFF" fill-rule="nonzero">
                    <path d="M39.423,3.64661458 C38.304,2.945 36.82,3.27057292 36.111,4.37989583 C35.402,5.48921875 35.733,6.95578125 36.852,7.65739583 C40.827,10.153125 43.2,14.3925 43.2,19 C43.2,23.6075 40.827,27.8478646 36.852,30.3426042 C35.733,31.0442187 35.402,32.5117708 36.111,33.6201042 C36.762,34.6373958 38.223,35.1074479 39.423,34.3533854 C44.794,30.9828646 48,25.2432812 48,19 C48,12.7567187 44.794,7.01713542 39.423,3.64661458 Z M33.823,11.3930729 C32.665,10.7666667 31.204,11.1793229 30.562,12.3282292 C29.923,13.4771354 30.346,14.9209375 31.507,15.5552604 C32.798,16.256875 33.6,17.5779687 33.6,19 C33.6,20.4220312 32.798,21.743125 31.508,22.4447396 C30.347,23.0790625 29.924,24.5228646 30.563,25.6717708 C31.206,26.825625 32.668,27.2353125 33.824,26.6069271 C36.647,25.068125 38.401,22.1538021 38.401,19 C38.401,15.8461979 36.647,12.9308854 33.823,11.3930729 Z M23.181,0 C22.59,0 21.989,0.215729167 21.503,0.69765625 L12.606,9.5 L2.4,9.5 C1.074,9.5 0,10.5628125 0,11.875 L0,26.125 C0,27.4361979 1.074,28.5 2.4,28.5 L12.606,28.5 L21.503,37.3023437 C21.99,37.7842708 22.591,38 23.181,38 C24.414,38 25.6,37.0579167 25.6,35.6230208 L25.6,2.37697917 C25.6,0.94109375 24.413,0 23.181,0 Z M20.8,29.8903646 L14.594,23.75 L4.8,23.75 L4.8,14.25 L14.594,14.25 L20.8,8.10963542 L20.8,29.8903646 L20.8,29.8903646 Z" id="Shape"></path>
                </g>
            </g>
        </g>
    </g>
</svg>