<?xml version="1.0" encoding="UTF-8"?>
<svg width="80px" height="80px" viewBox="0 0 80 80" version="1.1" xmlns="http://www.w3.org/2000/svg" xmlns:xlink="http://www.w3.org/1999/xlink">
    <!-- Generator: Sketch 57.1 (83088) - https://sketch.com -->
    <title>Group Copy</title>
    <desc>Created with Sketch.</desc>
    <g id="Page-1" stroke="none" stroke-width="1" fill="none" fill-rule="evenodd">
        <g id="Artboard" transform="translate(-69.000000, -166.000000)">
            <g id="Group-Copy" transform="translate(69.000000, 166.000000)">
                <rect id="Rectangle" fill="#FF4B4E" x="0" y="0" width="80" height="80" rx="6"></rect>
                <path d="M21.904,30.86 C24.2820119,30.86 26.1089936,31.4061612 27.385,32.4985 C28.6610064,33.5908388 29.299,35.1616564 29.299,37.211 C29.299,39.1636764 28.6610064,40.6764946 27.385,41.7495 C26.1089936,42.8225054 24.2820119,43.359 21.904,43.359 L18.105,43.359 L18.105,50 L13.117,50 L13.117,30.86 L21.904,30.86 Z M21.121,39.705 C22.2036721,39.705 23.0011641,39.4971687 23.5135,39.0815 C24.0258359,38.6658313 24.282,38.0230043 24.282,37.153 C24.282,36.3023291 24.0258359,35.6691687 23.5135,35.2535 C23.0011641,34.8378313 22.2036721,34.63 21.121,34.63 L18.105,34.63 L18.105,39.705 L21.121,39.705 Z M40.609,30.86 C43.6056816,30.86 45.901492,31.6864917 47.4965,33.3395 C49.091508,34.9925083 49.889,37.3559846 49.889,40.43 C49.889,43.5040154 49.091508,45.8674917 47.4965,47.5205 C45.901492,49.1735083 43.6056816,50 40.609,50 L32.489,50 L32.489,30.86 L40.609,30.86 Z M40.116,46.23 C41.7206747,46.23 42.8999962,45.7466715 43.654,44.78 C44.4080038,43.8133285 44.785,42.363343 44.785,40.43 C44.785,38.496657 44.4080038,37.0466715 43.654,36.08 C42.8999962,35.1133285 41.7206747,34.63 40.116,34.63 L37.477,34.63 L37.477,46.23 L40.116,46.23 Z M58.299,34.717 L58.299,38.777 L66.187,38.777 L66.187,42.634 L58.299,42.634 L58.299,50 L53.311,50 L53.311,30.86 L68.188,30.86 L68.188,34.717 L58.299,34.717 Z" id="PDF" fill="#FFFFFF" fill-rule="nonzero"></path>
            </g>
        </g>
    </g>
</svg>