<?xml version="1.0" encoding="UTF-8"?>
<svg width="80px" height="80px" viewBox="0 0 80 80" version="1.1" xmlns="http://www.w3.org/2000/svg" xmlns:xlink="http://www.w3.org/1999/xlink">
    <!-- Generator: Sketch 57.1 (83088) - https://sketch.com -->
    <title>Group 2</title>
    <desc>Created with Sketch.</desc>
    <g id="Page-1" stroke="none" stroke-width="1" fill="none" fill-rule="evenodd">
        <g id="Artboard" transform="translate(-69.000000, -386.000000)">
            <g id="Group-2" transform="translate(69.000000, 386.000000)">
                <g id="Group-Copy-3" fill="#FFBF00">
                    <rect id="Rectangle" x="0" y="0" width="80" height="80" rx="6"></rect>
                </g>
                <g id="presentation-regular" transform="translate(16.000000, 19.000000)" fill="#FFFFFF" fill-rule="nonzero">
                    <path d="M46.6666667,0 L1.33333333,0 C0.596666667,0 0,0.601319317 0,1.34373032 L0,2.68746063 C0,3.42987163 0.596666667,4.03119095 1.33333333,4.03119095 L2.66666667,4.03119095 L2.66666667,26.8746063 C2.66666667,28.3585885 3.86083333,29.562067 5.33333333,29.562067 L22,29.562067 L22,33.2338101 L15.5291667,39.7551012 C15.0083333,40.2799959 15.0083333,41.1307452 15.5291667,41.6556398 L16.4716667,42.6054892 C16.9925,43.1303838 17.8366667,43.1303838 18.3575,42.6054892 L24,36.9189904 L29.6433333,42.606329 C30.1641667,43.1312237 31.0083333,43.1312237 31.5291667,42.606329 L32.4708333,41.6556398 C32.9916667,41.1307452 32.9916667,40.2799959 32.4708333,39.7551012 L26,33.2338101 L26,29.562067 L42.6666667,29.562067 C44.1391667,29.562067 45.3333333,28.3585885 45.3333333,26.8746063 L45.3333333,4.03119095 L46.6666667,4.03119095 C47.4033333,4.03119095 48,3.42987163 48,2.68746063 L48,1.34373032 C48,0.601319317 47.4033333,0 46.6666667,0 Z M41.3333333,25.530876 L6.66666667,25.530876 L6.66666667,4.03119095 L41.3333333,4.03119095 L41.3333333,25.530876 Z" id="Shape"></path>
                </g>
            </g>
        </g>
    </g>
</svg>