<?xml version="1.0" encoding="UTF-8"?>
<svg width="80px" height="80px" viewBox="0 0 80 80" version="1.1" xmlns="http://www.w3.org/2000/svg" xmlns:xlink="http://www.w3.org/1999/xlink">
    <!-- Generator: Sketch 57.1 (83088) - https://sketch.com -->
    <title>Group</title>
    <desc>Created with Sketch.</desc>
    <g id="Page-1" stroke="none" stroke-width="1" fill="none" fill-rule="evenodd">
        <g id="Artboard" transform="translate(-69.000000, -56.000000)">
            <g id="Group" transform="translate(69.000000, 56.000000)">
                <rect id="Rectangle" fill="#4990FF" x="0" y="0" width="80" height="80" rx="6"></rect>
                <path d="M62.7142857,26 L17.2857143,26 C16.5756786,26 16,25.4243214 16,24.7142857 L16,21.2857143 C16,20.5756786 16.5756786,20 17.2857143,20 L62.7142857,20 C63.4243214,20 64,20.5756786 64,21.2857143 L64,24.7142857 C64,25.4243214 63.4243214,26 62.7142857,26 Z M62.7142857,43 L17.2857143,43 C16.5756786,43 16,42.4243214 16,41.7142857 L16,38.2857143 C16,37.5756786 16.5756786,37 17.2857143,37 L62.7142857,37 C63.4243214,37 64,37.5756786 64,38.2857143 L64,41.7142857 C64,42.4243214 63.4243214,43 62.7142857,43 Z M62.7142857,60 L17.2857143,60 C16.5756786,60 16,59.4243214 16,58.7142857 L16,55.2857143 C16,54.5756786 16.5756786,54 17.2857143,54 L62.7142857,54 C63.4243214,54 64,54.5756786 64,55.2857143 L64,58.7142857 C64,59.4243214 63.4243214,60 62.7142857,60 Z" id="Shape" fill="#FFFFFF" fill-rule="nonzero"></path>
            </g>
        </g>
    </g>
</svg>