<?xml version="1.0" encoding="UTF-8"?>
<svg width="80px" height="80px" viewBox="0 0 80 80" version="1.1" xmlns="http://www.w3.org/2000/svg" xmlns:xlink="http://www.w3.org/1999/xlink">
    <!-- Generator: Sketch 57.1 (83088) - https://sketch.com -->
    <title>Group 4</title>
    <desc>Created with Sketch.</desc>
    <g id="Page-1" stroke="none" stroke-width="1" fill="none" fill-rule="evenodd">
        <g id="Artboard" transform="translate(-69.000000, -716.000000)">
            <g id="Group-4" transform="translate(69.000000, 716.000000)">
                <g id="Group-Copy-6">
                    <rect id="Rectangle" fill="#666666" x="0" y="0" width="80" height="80" rx="6"></rect>
                    <g id="ghost-regular" transform="translate(24.000000, 18.000000)"></g>
                </g>
                <path d="M40,18 C39.8264583,18 39.6520313,18.0026367 39.4767188,18.00791 C30.1727604,18.2847601 23,26.3424152 23,35.5821761 L23,58.7778168 C23,59.6250659 23.6985938,60.186676 24.4272917,60.186676 C24.7752604,60.186676 25.1303125,60.0583582 25.4189583,59.7718404 L27.6254167,58.1432589 C27.8786458,57.9569344 28.1752604,57.86553 28.4701042,57.86553 C28.8623438,57.86553 29.2510417,58.0263667 29.5299479,58.3383723 L33.3328125,62.587801 C33.6090625,62.8620144 33.9720833,63 34.3342187,63 C34.6963542,63 35.059375,62.8628933 35.335625,62.587801 L38.9410417,58.5580946 C39.2226042,58.2434523 39.6113021,58.0852522 40,58.0852522 C40.3886979,58.0852522 40.7773958,58.2425734 41.0589583,58.5580946 L44.664375,62.587801 C44.940625,62.8620144 45.3036458,63 45.6657812,63 C46.0279167,63 46.3909375,62.8628933 46.6671875,62.587801 L50.4700521,58.3383723 C50.9577255,57.7926575 51.784905,57.7079155 52.3745833,58.1432589 L54.5810417,59.7718404 C54.8696875,60.0583582 55.2247396,60.186676 55.5727083,60.186676 C56.3005208,60.186676 57,59.6250659 57,58.7778168 L57,34.8746704 C57,25.5549306 49.3889583,18 40,18 Z M53,53.4367011 C52.5955696,53.3509018 52.1794035,53.3071266 51.7569182,53.3071266 C50.1066977,53.3071266 48.5323079,53.9926458 47.4363737,55.1894589 L45.7780285,57 L44.3200931,55.4083348 C43.2250616,54.2123971 41.6497691,53.5260025 40.0004514,53.5260025 C38.3511336,53.5260025 36.7767439,54.2123971 35.6808097,55.4083348 L34.2228742,57 L32.5636263,55.1885834 C31.4663597,53.9921093 29.8941486,53.3074623 28.2430818,53.3071266 C27.8205965,53.3071266 27.4044304,53.3509018 27,53.4367011 L27,35.3120294 C27,28.1775521 32.6511927,22.2083698 39.596021,22.0061285 L40.0004514,22 C47.168258,22 53,27.6557521 53,34.6072492 L53,53.4367011 Z M34,32 C32.3434375,32 31,33.3434375 31,35 C31,36.6565625 32.3434375,38 34,38 C35.6565625,38 37,36.6565625 37,35 C37,33.3434375 35.6565625,32 34,32 Z M46,32 C44.3434375,32 43,33.3434375 43,35 C43,36.6565625 44.3434375,38 46,38 C47.6565625,38 49,36.6565625 49,35 C49,33.3434375 47.6565625,32 46,32 Z" id="Shape" fill="#FFFFFF" fill-rule="nonzero"></path>
            </g>
        </g>
    </g>
</svg>