<?xml version="1.0" encoding="UTF-8"?>
<svg width="80px" height="80px" viewBox="0 0 80 80" version="1.1" xmlns="http://www.w3.org/2000/svg" xmlns:xlink="http://www.w3.org/1999/xlink">
    <!-- Generator: Sketch 57.1 (83088) - https://sketch.com -->
    <title>Group 3</title>
    <desc>Created with Sketch.</desc>
    <g id="Page-1" stroke="none" stroke-width="1" fill="none" fill-rule="evenodd">
        <g id="Artboard" transform="translate(-69.000000, -606.000000)">
            <g id="Group-3" transform="translate(69.000000, 606.000000)">
                <g id="Group-Copy-5" fill="#9300B3">
                    <rect id="Rectangle" x="0" y="0" width="80" height="80" rx="6"></rect>
                </g>
                <g id="video-regular" transform="translate(16.000000, 24.000000)" fill="#FFFFFF" fill-rule="nonzero">
                    <path d="M45.325,2.66666667 C44.8083333,2.66666667 44.2833333,2.81666667 43.8083333,3.14166667 L34.6666667,8.84166667 L34.6666667,3.98333333 C34.6666667,1.78333333 32.7333333,0 30.35,0 L4.31666667,0 C1.93333333,0 0,1.78333333 0,3.98333333 L0,28.0166667 C0,30.2166667 1.93333333,32 4.31666667,32 L30.35,32 C32.7333333,32 34.6666667,30.2166667 34.6666667,28.0166667 L34.6666667,23.1583333 L43.8083333,28.85 C44.2833333,29.1833333 44.8166667,29.325 45.325,29.325 C46.7083333,29.325 48,28.2416667 48,26.7 L48,5.29166667 C48,3.75 46.7083333,2.66666667 45.325,2.66666667 Z M30.6666667,11.3333333 L30.6666667,27.9083333 C30.6166667,27.9416667 30.5166667,28 30.35,28 L4.31666667,28 C4.15,28 4.05,27.95 4,27.9083333 L4,4.09166667 C4.05,4.05833333 4.15,4 4.31666667,4 L30.35,4 C30.5166667,4 30.6166667,4.05 30.6666667,4.09166667 L30.6666667,11.3333333 Z M44,24.2666667 L34.6666667,18.45 L34.6666667,13.5583333 L44,7.74166667 L44,24.2666667 Z" id="Shape"></path>
                </g>
            </g>
        </g>
    </g>
</svg>