<?xml version="1.0" encoding="UTF-8"?>
<svg width="80px" height="80px" viewBox="0 0 80 80" version="1.1" xmlns="http://www.w3.org/2000/svg" xmlns:xlink="http://www.w3.org/1999/xlink">
    <!-- Generator: Sketch 57.1 (83088) - https://sketch.com -->
    <title>Group Copy 2</title>
    <desc>Created with Sketch.</desc>
    <g id="Page-1" stroke="none" stroke-width="1" fill="none" fill-rule="evenodd">
        <g id="Artboard" transform="translate(-69.000000, -276.000000)">
            <g id="Group-Copy-2" transform="translate(69.000000, 276.000000)">
                <rect id="Rectangle" fill="#171717" x="0" y="0" width="80" height="80" rx="6"></rect>
                <path d="M34.487,46.23 L34.487,50 L18.073,50 L18.073,46.404 L28.774,34.63 L18.276,34.63 L18.276,30.86 L34.139,30.86 L34.139,34.456 L23.496,46.23 L34.487,46.23 Z M42.491,50 L37.503,50 L37.503,30.86 L42.491,30.86 L42.491,50 Z M55.512,30.86 C57.8900119,30.86 59.7169936,31.4061612 60.993,32.4985 C62.2690064,33.5908388 62.907,35.1616564 62.907,37.211 C62.907,39.1636764 62.2690064,40.6764946 60.993,41.7495 C59.7169936,42.8225054 57.8900119,43.359 55.512,43.359 L51.713,43.359 L51.713,50 L46.725,50 L46.725,30.86 L55.512,30.86 Z M54.729,39.705 C55.8116721,39.705 56.6091641,39.4971687 57.1215,39.0815 C57.6338359,38.6658313 57.89,38.0230043 57.89,37.153 C57.89,36.3023291 57.6338359,35.6691687 57.1215,35.2535 C56.6091641,34.8378313 55.8116721,34.63 54.729,34.63 L51.713,34.63 L51.713,39.705 L54.729,39.705 Z" id="ZIP" fill="#FFFFFF" fill-rule="nonzero"></path>
            </g>
        </g>
    </g>
</svg>