<svg xmlns="http://www.w3.org/2000/svg" xmlns:xlink="http://www.w3.org/1999/xlink" width="122.994" height="110.483" viewBox="0 0 122.994 110.483">
  <defs>
    <linearGradient id="linear-gradient" x1="0.426" y1="0.182" x2="0.693" y2="0.83" gradientUnits="objectBoundingBox">
      <stop offset="0" stop-color="#ed55eb"/>
      <stop offset="0.374" stop-color="#17e0d8"/>
      <stop offset="0.601" stop-color="#00ffc2"/>
      <stop offset="1" stop-color="#ffec06"/>
    </linearGradient>
  </defs>
  <g id="Group-30-Copy-2" transform="translate(-98.079 64.813)">
    <g id="Group-46-Copy-9" transform="translate(127.002 -64.313)">
      <path id="Combined-Shape" d="M33.045,0a28.115,28.115,0,0,1,22.43,11.1l.119,0h0l.389,0c5.611,1.064,10.107,6.774,10.107,13.341a12.381,12.381,0,0,1-5.948,10.814,28.153,28.153,0,0,1-54.2,0A12.38,12.38,0,0,1,0,24.433c0-6.567,4.5-12.277,10.107-13.341q.259,0,.51,0A28.11,28.11,0,0,1,33.045,0Z" fill="#171717" stroke="#fff" stroke-width="1" fill-rule="evenodd"/>
      <path id="Rectangle" d="M22.327,12.132a22.892,22.892,0,0,1,20.653,0,18.813,18.813,0,0,1,10.327,16.79v5.048A13.265,13.265,0,0,1,42.98,46.906a46.62,46.62,0,0,1-20.653,0A13.265,13.265,0,0,1,12,33.971V28.923A18.813,18.813,0,0,1,22.327,12.132Z" transform="translate(0.392 0.316)" fill-rule="evenodd" fill="url(#linear-gradient)"/>
    </g>
    <path id="space" d="M88.59,41.366a14.222,14.222,0,0,1-5.752-1.018,7.572,7.572,0,0,1-3.385-2.675,6.424,6.424,0,0,1-1.089-3.6q0-.568.024-.781t.024-.26H82.53v.473a3.692,3.692,0,0,0,1.752,3.338,8.357,8.357,0,0,0,4.545,1.113,7.549,7.549,0,0,0,4-.971,3.034,3.034,0,0,0,1.586-2.722,3,3,0,0,0-.9-2.249,6.322,6.322,0,0,0-2.225-1.373,34.565,34.565,0,0,0-3.6-1.065,35.426,35.426,0,0,1-4.474-1.42,7.685,7.685,0,0,1-2.935-2.107,5.34,5.34,0,0,1-1.207-3.622,6.054,6.054,0,0,1,2.675-5.184,12.161,12.161,0,0,1,7.22-1.917,12.076,12.076,0,0,1,4.924.923,7.3,7.3,0,0,1,3.148,2.462,5.893,5.893,0,0,1,1.065,3.432l-.047.9H93.987v-.426a3.429,3.429,0,0,0-1.3-2.746,6.5,6.5,0,0,0-4.19-1.089q-2.84,0-3.977,1.018a3.072,3.072,0,0,0-1.136,2.343,2.3,2.3,0,0,0,.8,1.8,6.079,6.079,0,0,0,1.988,1.136q1.184.426,3.314.947a41.173,41.173,0,0,1,4.782,1.491,8.083,8.083,0,0,1,3.148,2.225,5.8,5.8,0,0,1,1.3,3.953,6.532,6.532,0,0,1-2.769,5.752A12.7,12.7,0,0,1,88.59,41.366ZM103.739,15.9h3.125l.521,3.361h.284a7.954,7.954,0,0,1,3.243-2.935,9.96,9.96,0,0,1,4.474-.994,8.824,8.824,0,0,1,7.291,3.172q2.556,3.172,2.556,9.847,0,6.533-2.533,9.776a8.321,8.321,0,0,1-6.936,3.243,11.236,11.236,0,0,1-4.5-.8,7.167,7.167,0,0,1-3.077-2.6h-.284V48.988h-4.166Zm10.6,22.014a7.109,7.109,0,0,0,3.835-.9,5.216,5.216,0,0,0,2.083-2.935,18.514,18.514,0,0,0,.663-5.539v-.189a19.211,19.211,0,0,0-.663-5.634,5.3,5.3,0,0,0-2.107-3.006,6.987,6.987,0,0,0-3.811-.923,5.392,5.392,0,0,0-4.876,2.414q-1.562,2.414-1.562,7.149v.189q0,4.64,1.539,7.007A5.415,5.415,0,0,0,114.344,37.91Zm22.487,3.456a10.863,10.863,0,0,1-5.728-1.515q-2.509-1.515-2.509-5.492a6.518,6.518,0,0,1,4.261-6.557q4.261-1.775,12.309-1.775V23.281a4.366,4.366,0,0,0-1.231-3.338q-1.231-1.16-4.45-1.16-3.03,0-4.332,1.136a3.566,3.566,0,0,0-1.3,2.793v.568h-4.024a7.512,7.512,0,0,1-.047-1.042,5.762,5.762,0,0,1,2.746-5.113,13.222,13.222,0,0,1,7.338-1.8q4.64,0,7.054,1.941a6.643,6.643,0,0,1,2.414,5.492V36.253a1.557,1.557,0,0,0,.473,1.255,1.764,1.764,0,0,0,1.184.4h1.894v2.7a7.743,7.743,0,0,1-3.219.568,3.907,3.907,0,0,1-2.7-.971,4.832,4.832,0,0,1-1.468-2.58h-.331a8.56,8.56,0,0,1-3.48,2.746A11.654,11.654,0,0,1,136.831,41.366Zm1.089-3.456a8.328,8.328,0,0,0,3.5-.757,6.561,6.561,0,0,0,2.7-2.249,6.166,6.166,0,0,0,1.042-3.622v-1.8a32.305,32.305,0,0,0-9.161.971q-3.054.971-3.054,3.669a3.3,3.3,0,0,0,1.255,2.912A6.5,6.5,0,0,0,137.92,37.91Zm27.932,3.456q-5.681,0-8.332-3.148t-2.651-9.871q0-6.675,2.675-9.847t8.308-3.172q5.113,0,7.48,2.462t2.367,7.338h-4.261q0-3.361-1.207-4.853t-4.379-1.491a5.8,5.8,0,0,0-5.066,2.249q-1.61,2.249-1.61,7.314v.189q0,5.018,1.562,7.2t5.113,2.178q3.125,0,4.474-1.586a7.191,7.191,0,0,0,1.349-4.758H175.7a10.311,10.311,0,0,1-2.414,7.03Q170.87,41.366,165.851,41.366Zm24.76,0q-6.012,0-8.948-3.172t-2.935-9.847q0-6.675,2.935-9.847t8.948-3.172q5.4,0,8.072,2.864t2.675,9.208v2.083H183.036q.237,4.308,2.059,6.367a6.984,6.984,0,0,0,5.515,2.059,7.891,7.891,0,0,0,4.829-1.373,4.908,4.908,0,0,0,1.846-4.213h4.071a7.993,7.993,0,0,1-3.006,6.7A12.222,12.222,0,0,1,190.611,41.366ZM197,26.027q0-7.243-6.391-7.243a7.421,7.421,0,0,0-5.326,1.7q-1.775,1.7-2.154,5.539Z" transform="translate(19.715 -3.317)" fill="#fff"/>
  </g>
</svg>
