<svg xmlns="http://www.w3.org/2000/svg" width="1003" height="627" viewBox="0 0 1003 627">
    <defs>
        <clipPath id="prefix__clip-path">
            <rect id="prefix__Rectangle_698" width="1003" height="627" data-name="Rectangle 698" rx="6" transform="translate(872.91 254.62)" style="fill:none"/>
        </clipPath>
        <style>
            .prefix__cls-3{fill:#09090a}.prefix__cls-4{fill:#141414}.prefix__cls-5{fill:#1c1c1c}.prefix__cls-6{fill:#fff}
        </style>
    </defs>
    <g id="prefix__yes" transform="translate(-872.91 -254.62)">
        <path id="prefix__Path_173" d="M440.667-84.048c-17.643-23.428-38.56-45.013-64.307-59.052-30.581-16.675-65.982-21.742-100.6-25.6a1960.8 1960.8 0 0 0-395.206-3.949c-10.431.954-21.3 2.138-30.1 7.808-16.974 10.925-20.38 33.883-22.132 53.981-15.324 175.769-29.6 352.151-22.689 528.452 1.908 48.572 5.983 99.018 30.247 141.137 7.724 13.408 17.873 26.12 31.786 32.873 13.725 6.676 29.634 6.913 44.863 5.966 77.871-4.845 151.031-36.735 225.277-60.692 26.332-8.5 53.316-16.187 76.9-30.647 19.949-12.231 36.815-28.955 51.682-47.016 22.951-27.906 41.764-59.94 49.882-95.153 10.977-47.615 1.842-97.2-.853-145.989A552.628 552.628 0 0 1 363.83-39.755" class="prefix__cls-3" data-name="Path 173" transform="translate(1000.756 372.425)"/>
        <path id="prefix__Path_174" d="M-74.537-177.913c-75.061-.721-151.888.526-222.342 26.433-39.8 14.634-76.538 36.8-116.567 50.791-38.232 13.352-78.662 18.97-118 28.592C-595-56.547-656.6-29.957-707.3 11.406s-89.977 98.21-104.093 162.1c-1.971 8.923-3.444 18.28-1.135 27.119 5.2 19.938 26.956 30.114 46.57 36.425 92.29 29.707 191.131 32.472 285.1 56.363 35.485 9.024 71.714 22 96.72 48.74 6.035 6.457 11.566 15.794 7.509 23.644-2.159 4.179-6.533 6.683-10.8 8.707-27.387 13.1-58.407 15.975-88.7 17.887-122.314 7.728-252.634 5-356.8 69.576-22.39 13.878-45.4 37.038-38.845 62.566 4.44 17.267 21.181 28.366 37.64 35.227 32.082 13.373 67.344 16.912 102.066 18.521 76.73 3.556 153.584-1.592 230.2-6.735 79.446-5.332 159.247-10.713 237.011-27.83 30.581-6.732 61.19-15.442 88.006-31.608s49.746-40.615 58.6-70.659c12.858-43.7-5.363-89.619-17.873-133.423-17.1-59.839-23.466-124.894-3.333-183.751C-108.813 34.632-22.419-27.038 9.249-116.326c4.527-12.788 7.832-27.057 2.967-39.723-6.345-16.529-24.493-25.183-41.659-29.519s-35.551-6.23-50.331-15.982" class="prefix__cls-4" data-name="Path 174" transform="translate(1441.818 385.977)"/>
        <path id="prefix__Path_175" d="M1015.742-183.289a762.05 762.05 0 0 0-104.528 48.712c-39.946 22.449-82.479 57.255-79.345 102.971.742 10.838 4.144 21.62 2.64 32.389-2.532 18.11-18.016 31.312-32.852 42.018-74 53.389-163.775 95.2-204.821 176.685-12.259 24.326-19.433 51.891-16.107 78.913 2.852 23.222 13.272 45.316 13.607 68.712.655 45.724-36.091 82.5-52.107 125.326-4.688 12.537-7.613 26.256-4.7 39.326 5.92 26.468 33.221 42.14 59.132 50.1 76.709 23.567 159.5 7.794 239.418 15.038 74.529 6.756 145.734 33.486 219.365 46.9 124.626 22.714 256.131 6.053 371.155-47.016 46.215-21.324 94.8-56.05 98.52-106.809 2.873-39.239-23.1-75.312-54.113-99.527s-67.663-40.249-99.366-63.549a266.265 266.265 0 0 1-96.086-135.3c-25.674-83.566-8.672-174.278-22.985-260.526-3.96-23.856-10.525-47.785-23.981-67.873-33.465-49.913-99.255-64.164-158.46-74.34" class="prefix__cls-3" data-name="Path 175" transform="translate(523.341 392.228)"/>
        <path id="prefix__Path_176" d="M1613.981-153.734c-32.566 16.685-69.649 24.18-100.2 44.3s-53.4 60.4-37.1 93.14c15.181 30.487 59.278 45.448 60.281 79.495.442 14.975-8.606 28.906-20.2 38.4s-25.608 15.414-39.138 21.857a483.171 483.171 0 0 0-109.524 71.793c-21.819 19-43.634 47.528-32.441 74.2 7.112 16.957 25.3 26.179 42.572 32.486a324.862 324.862 0 0 0 121.346 19.506c28.15-.892 61.294-3.483 79.2 18.253 20.464 24.831 5.976 64.119 20.429 92.868 14.422 28.687 51.592 36.519 83.7 36.568s66.727-3.7 93.958 13.307c21.638 13.516 34.2 37.7 53.608 54.256 23.379 19.935 55.5 27.422 86.188 25.817s60.316-11.524 88.807-23.048c10.42-4.218 21.39-9.194 27.321-18.744 8.543-13.756 3.671-31.525-1.108-46.995-20.032-64.875-34.21-132.051-34.945-199.942-1.181-108.86 32.061-215.481 35.774-324.283.892-26.1-.192-53.333-12.377-76.427-14.209-26.942-41.659-44.477-69.938-55.8a262.5 262.5 0 0 0-107.812-18.528c-74.226 3-144.53 37.351-218.779 39.97" class="prefix__cls-4" data-name="Path 176" transform="translate(4.392 385.915)"/>
        <path id="prefix__Path_177" d="M2021.924-169.312a1231.585 1231.585 0 0 0-166.275 62.733c-12.538 5.792-25.239 11.987-34.917 21.829s-15.909 24.163-12.649 37.578c1.393 5.649 4.3 10.775 7.2 15.818l19.069 33.214c7.7 13.412 15.529 27.165 18.211 42.394 5.346 30.348-10.761 60.6-31.138 83.723s-45.441 41.987-64.035 66.56c-7.279 9.612-13.749 21.154-12.026 33.085 1.654 11.458 10.545 20.548 20.119 27.06 25.35 17.225 56.906 21.669 86.941 27.774s61.6 15.494 81.264 39.006c11.6 13.871 17.88 31.382 28.014 46.354 23.473 34.68 65.1 52.4 105.851 62.047 66.191 15.672 140.58 13.3 196.362-25.629 10.65-7.435 21.369-18.145 20.373-31.1-.453-5.858-3.322-11.259-6.662-16.093-21.526-31.159-63.287-45.132-80.8-78.708-9.128-17.518-10.583-38.717-22.156-54.723-10.542-14.585-28.167-22.672-45.88-25.838s-35.871-2.013-53.859-1.633a619.334 619.334 0 0 1-93.457-5.137c-15.5-2.03-31.208-4.743-45.093-11.914s-25.873-19.5-29.073-34.826c-4.555-21.76 8.919-42.628 16.208-63.631a119.366 119.366 0 0 0-11.329-100.781c-9.751-15.6-23.626-34.422-14.042-50.119 3.559-5.83 9.73-9.494 15.787-12.663 63.1-33.019 141.681-38.908 192.694-88.6 8.048-7.839 15.672-18.636 12.652-29.453a179.637 179.637 0 0 0-70.367.084" class="prefix__cls-5" data-name="Path 177" transform="translate(-264.423 387.848)"/>
        <path id="prefix__Path_178" d="M107.1-217.3c-27.422 7.091-55.806 14.662-77.642 32.7-16.616 13.725-28.443 32.775-46 45.274-18.134 12.91-40.642 17.647-62.378 22.449-130.149 28.758-258.303 70.939-373.92 137.259-22.491 12.886-45.017 27.165-60.5 47.977-8.947 12.015-15.425 27.37-11.552 41.844 6.575 24.587 37.09 32.528 62.451 34.687 38.111 3.232 76.42 3.232 114.648 1.912 23.863-.815 53.138.839 63.781 22.209 5.694 11.43 4.5 26.576 13.979 35.129 5.025 4.527 12.053 6.095 18.806 6.617a81.9 81.9 0 0 0 66.762-27c11.886-13.471 18.11-36.2 4.8-48.287-4.688-4.263-10.929-6.3-16.967-8.212l-57.425-18.207c-11.843-3.762-24.643-8.251-31.233-18.779-6.387-10.2-4.973-23.95 1.125-34.332S-268 38.085-257.429 32.314c37.048-20.227 82.229-22.679 117.821-45.365 15.811-10.079 29.167-23.842 45.7-32.681C-46.4-71.131 15.241-50.559 63.858-73.8c19.7-9.421 35.46-25.277 50.794-40.827l85.4-86.6c12.1-12.266 24.824-31.274 14.244-44.87-7.442-9.567-21.773-9.212-33.782-7.7a826.216 826.216 0 0 0-89.545 16.337" class="prefix__cls-5" data-name="Path 178" transform="translate(1215.747 420.559)"/>
        <path id="prefix__Path_179" d="M-337.432 1633.737a124.288 124.288 0 0 0 80.832-15.278c10.389-6.049 19.9-13.624 30.787-18.719 21.881-10.246 47.085-9.57 71.23-8.707 12.6.456 28.815 4.022 30.355 16.529 1.2 9.724-8.122 17.445-17.117 21.321-36.021 15.526-80.383 2.741-114.774 21.592-15.177 8.327-26.628 21.969-40.27 32.629a122.764 122.764 0 0 1-93.265 24.253c-17.5-2.727-36.745-11.966-40.336-29.306" class="prefix__cls-5" data-name="Path 179" transform="translate(1153.15 -782.022)"/>
        <circle id="prefix__Ellipse_146" cx="2" cy="2" r="2" class="prefix__cls-6" data-name="Ellipse 146" transform="translate(972.91 364.62)"/>
        <circle id="prefix__Ellipse_147" cx="3" cy="3" r="3" class="prefix__cls-6" data-name="Ellipse 147" transform="translate(993.91 273.62)"/>
        <circle id="prefix__Ellipse_148" cx="3.5" cy="3.5" r="3.5" class="prefix__cls-6" data-name="Ellipse 148" transform="translate(986.91 315.62)"/>
        <circle id="prefix__Ellipse_149" cx="2" cy="2" r="2" class="prefix__cls-6" data-name="Ellipse 149" transform="translate(1067.91 291.62)"/>
        <circle id="prefix__Ellipse_150" cx="1" cy="1" r="1" class="prefix__cls-6" data-name="Ellipse 150" transform="translate(1059.91 388.62)"/>
        <ellipse id="prefix__Ellipse_151" cx="1" cy=".5" class="prefix__cls-6" data-name="Ellipse 151" rx="1" ry=".5" transform="translate(1203.91 566.62)"/>
        <ellipse id="prefix__Ellipse_152" cx="4.5" cy="5" class="prefix__cls-6" data-name="Ellipse 152" rx="4.5" ry="5" transform="translate(1194.91 677.62)"/>
        <circle id="prefix__Ellipse_153" cx="2" cy="2" r="2" class="prefix__cls-6" data-name="Ellipse 153" transform="translate(1244.91 737.62)"/>
        <ellipse id="prefix__Ellipse_154" cx="1.5" cy="2" class="prefix__cls-6" data-name="Ellipse 154" rx="1.5" ry="2" transform="translate(1183.91 746.62)"/>
        <circle id="prefix__Ellipse_155" cx="1" cy="1" r="1" class="prefix__cls-6" data-name="Ellipse 155" transform="translate(1157.91 739.62)"/>
        <circle id="prefix__Ellipse_156" cx="3.5" cy="3.5" r="3.5" class="prefix__cls-6" data-name="Ellipse 156" transform="translate(1333.91 867.62)"/>
        <ellipse id="prefix__Ellipse_157" cx="1.5" cy="2" class="prefix__cls-6" data-name="Ellipse 157" rx="1.5" ry="2" transform="translate(1379.91 820.62)"/>
        <ellipse id="prefix__Ellipse_158" cx="1" cy=".5" class="prefix__cls-6" data-name="Ellipse 158" rx="1" ry=".5" transform="translate(1345.91 776.62)"/>
        <circle id="prefix__Ellipse_159" cx="1.5" cy="1.5" r="1.5" class="prefix__cls-6" data-name="Ellipse 159" transform="translate(1402.91 725.62)"/>
        <circle id="prefix__Ellipse_160" cx="1" cy="1" r="1" class="prefix__cls-6" data-name="Ellipse 160" transform="translate(1485.91 748.62)"/>
        <ellipse id="prefix__Ellipse_161" cx="1.5" cy="2" class="prefix__cls-6" data-name="Ellipse 161" rx="1.5" ry="2" transform="translate(1493.91 797.62)"/>
        <circle id="prefix__Ellipse_162" cx="1.5" cy="1.5" r="1.5" class="prefix__cls-6" data-name="Ellipse 162" transform="translate(1537.91 760.62)"/>
        <circle id="prefix__Ellipse_163" cx="2" cy="2" r="2" class="prefix__cls-6" data-name="Ellipse 163" transform="translate(1463.91 646.62)"/>
        <circle id="prefix__Ellipse_165" cx="1" cy="1" r="1" class="prefix__cls-6" data-name="Ellipse 165" transform="translate(1520.91 520.62)"/>
        <ellipse id="prefix__Ellipse_168" cx="1" cy="1.5" class="prefix__cls-6" data-name="Ellipse 168" rx="1" ry="1.5" transform="translate(1453.91 390.62)"/>
        <circle id="prefix__Ellipse_169" cx=".5" cy=".5" r=".5" class="prefix__cls-6" data-name="Ellipse 169" transform="translate(1301.91 389.62)"/>
        <circle id="prefix__Ellipse_170" cx="2.5" cy="2.5" r="2.5" class="prefix__cls-6" data-name="Ellipse 170" transform="translate(1164.91 436.62)"/>
        <ellipse id="prefix__Ellipse_171" cx="2.5" cy="2" class="prefix__cls-6" data-name="Ellipse 171" rx="2.5" ry="2" transform="translate(1085.91 453.62)"/>
        <circle id="prefix__Ellipse_172" cx="1" cy="1" r="1" class="prefix__cls-6" data-name="Ellipse 172" transform="translate(1056.91 603.62)"/>
        <circle id="prefix__Ellipse_173" cx="3.5" cy="3.5" r="3.5" class="prefix__cls-6" data-name="Ellipse 173" transform="translate(993.91 567.62)"/>
        <circle id="prefix__Ellipse_174" cx="1" cy="1" r="1" class="prefix__cls-6" data-name="Ellipse 174" transform="translate(972.91 474.62)"/>
        <ellipse id="prefix__Ellipse_175" cx="1.5" cy="1" class="prefix__cls-6" data-name="Ellipse 175" rx="1.5" ry="1" transform="translate(895.91 430.62)"/>
        <circle id="prefix__Ellipse_176" cx="2" cy="2" r="2" class="prefix__cls-6" data-name="Ellipse 176" transform="translate(936.91 721.62)"/>
        <ellipse id="prefix__Ellipse_177" cx=".5" cy="1" class="prefix__cls-6" data-name="Ellipse 177" rx=".5" ry="1" transform="translate(939.91 689.62)"/>
        <ellipse id="prefix__Ellipse_178" cx="2" cy="1.5" class="prefix__cls-6" data-name="Ellipse 178" rx="2" ry="1.5" transform="translate(914.91 623.62)"/>
        <circle id="prefix__Ellipse_179" cx="1" cy="1" r="1" class="prefix__cls-6" data-name="Ellipse 179" transform="translate(898.91 719.62)"/>
        <ellipse id="prefix__Ellipse_180" cx="1.5" cy="2" class="prefix__cls-6" data-name="Ellipse 180" rx="1.5" ry="2" transform="translate(993.91 746.62)"/>
        <circle id="prefix__Ellipse_181" cx="1" cy="1" r="1" class="prefix__cls-6" data-name="Ellipse 181" transform="translate(987.91 837.62)"/>
        <circle id="prefix__Ellipse_182" cx="1" cy="1" r="1" class="prefix__cls-6" data-name="Ellipse 182" transform="translate(933.91 815.62)"/>
        <ellipse id="prefix__Ellipse_183" cx="3" cy="2.5" class="prefix__cls-6" data-name="Ellipse 183" rx="3" ry="2.5" transform="translate(1112.91 850.62)"/>
        <circle id="prefix__Ellipse_184" cx="2" cy="2" r="2" class="prefix__cls-6" data-name="Ellipse 184" transform="translate(1068.91 797.62)"/>
        <circle id="prefix__Ellipse_186" cx="2.5" cy="2.5" r="2.5" class="prefix__cls-6" data-name="Ellipse 186" transform="translate(1553.91 574.62)"/>
        <circle id="prefix__Ellipse_187" cx="4" cy="4" r="4" class="prefix__cls-6" data-name="Ellipse 187" transform="translate(1738.91 426.62)"/>
        <ellipse id="prefix__Ellipse_188" cx="4" cy="3.5" class="prefix__cls-6" data-name="Ellipse 188" rx="4" ry="3.5" transform="translate(1758.91 373.62)"/>
        <circle id="prefix__Ellipse_189" cx="3.5" cy="3.5" r="3.5" class="prefix__cls-6" data-name="Ellipse 189" transform="translate(1640.91 383.62)"/>
        <circle id="prefix__Ellipse_190" cx="2.5" cy="2.5" r="2.5" class="prefix__cls-6" data-name="Ellipse 190" transform="translate(1693.91 329.62)"/>
        <ellipse id="prefix__Ellipse_191" cx="1" cy="1.5" class="prefix__cls-6" data-name="Ellipse 191" rx="1" ry="1.5" transform="translate(1586.91 311.62)"/>
        <circle id="prefix__Ellipse_192" cx=".5" cy=".5" r=".5" class="prefix__cls-6" data-name="Ellipse 192" transform="translate(1484.91 298.62)"/>
        <circle id="prefix__Ellipse_193" cx="1" cy="1" r="1" class="prefix__cls-6" data-name="Ellipse 193" transform="translate(1446.91 286.62)"/>
        <circle id="prefix__Ellipse_194" cx="2" cy="2" r="2" class="prefix__cls-6" data-name="Ellipse 194" transform="translate(1364.91 302.62)"/>
        <circle id="prefix__Ellipse_195" cx="3" cy="3" r="3" class="prefix__cls-6" data-name="Ellipse 195" transform="translate(1308.91 287.62)"/>
        <ellipse id="prefix__Ellipse_196" cx="3.5" cy="3" class="prefix__cls-6" data-name="Ellipse 196" rx="3.5" ry="3" transform="translate(1217.91 309.62)"/>
        <ellipse id="prefix__Ellipse_197" cx="1" cy="1.5" class="prefix__cls-6" data-name="Ellipse 197" rx="1" ry="1.5" transform="translate(1155.91 270.62)"/>
        <circle id="prefix__Ellipse_198" cx="2" cy="2" r="2" class="prefix__cls-6" data-name="Ellipse 198" transform="translate(1171.91 337.62)"/>
        <circle id="prefix__Ellipse_199" cx="3.5" cy="3.5" r="3.5" class="prefix__cls-6" data-name="Ellipse 199" transform="translate(1232.91 407.62)"/>
        <circle id="prefix__Ellipse_202" cx="4" cy="4" r="4" class="prefix__cls-6" data-name="Ellipse 202" transform="translate(1553.91 623.62)"/>
        <circle id="prefix__Ellipse_203" cx="4.5" cy="4.5" r="4.5" class="prefix__cls-6" data-name="Ellipse 203" transform="translate(1640.91 721.62)"/>
        <ellipse id="prefix__Ellipse_204" cx="1.5" cy="2" class="prefix__cls-6" data-name="Ellipse 204" rx="1.5" ry="2" transform="translate(1746.91 730.62)"/>
        <ellipse id="prefix__Ellipse_205" cx="6.5" cy="7" class="prefix__cls-6" data-name="Ellipse 205" rx="6.5" ry="7" transform="translate(1702.91 623.62)"/>
        <circle id="prefix__Ellipse_206" cx="5.5" cy="5.5" r="5.5" class="prefix__cls-6" data-name="Ellipse 206" transform="translate(1678.91 799.62)"/>
        <circle id="prefix__Ellipse_207" cx="2" cy="2" r="2" class="prefix__cls-6" data-name="Ellipse 207" transform="translate(1794.91 769.62)"/>
        <circle id="prefix__Ellipse_208" cx="3.5" cy="3.5" r="3.5" class="prefix__cls-6" data-name="Ellipse 208" transform="translate(1788.91 543.62)"/>
        <path id="prefix__Path_181" d="M303.54 862.479c7.529 0 15.968-.157 24.424-.592 0 0-10.235-.773-24.42-.843 3.19-3.218 6.659-6.882 10-10.744 0 0-4.573 4.12-10.626 10.1 0-7.526-.157-15.964-.589-24.42 0 0-.773 10.239-.846 24.42-3.214-3.19-6.878-6.655-10.744-9.992 0 0 4.12 4.569 10.1 10.622-7.491 0-15.912.23-24.424.85 0 0 10.3.533 24.42.589-3.211 3.225-6.711 6.864-10.1 10.625 0 0 4.646-3.995 10.74-10 0 7.491.226 15.912.85 24.424 0 0 .533-10.3.585-24.42 3.225 3.211 6.868 6.715 10.629 10.1-.008.018-3.995-4.627-9.999-10.719z" class="prefix__cls-6" data-name="Path 181" transform="translate(694.764 -290.218)"/>
        <path id="prefix__Path_182" d="M1008.54 410.479c7.529 0 15.968-.157 24.424-.592 0 0-10.236-.773-24.42-.843 3.19-3.218 6.659-6.882 10-10.744 0 0-4.573 4.12-10.626 10.1 0-7.526-.157-15.964-.589-24.42 0 0-.773 10.239-.846 24.42-3.214-3.19-6.878-6.655-10.744-9.992 0 0 4.12 4.569 10.1 10.622-7.491 0-15.912.23-24.424.85 0 0 10.3.533 24.42.589-3.211 3.225-6.711 6.864-10.1 10.626 0 0 4.646-3.995 10.74-10 0 7.491.226 15.912.85 24.424 0 0 .533-10.3.585-24.42 3.225 3.211 6.868 6.715 10.629 10.1-.008.017-3.995-4.628-9.999-10.72z" class="prefix__cls-6" data-name="Path 182" transform="translate(229.29 1.366)"/>
    </g>
</svg>
