<svg width="301" height="68" viewBox="0 0 301 68" fill="none" xmlns="http://www.w3.org/2000/svg">
<path d="M103.494 44.76C104.941 44.76 106.075 45.1613 106.896 45.964C107.727 46.7573 108.142 47.896 108.142 49.38C108.142 50.864 107.727 52.0073 106.896 52.81C106.075 53.6033 104.941 54 103.494 54H100.512V44.76H103.494ZM103.606 52.95C104.661 52.95 105.482 52.6373 106.07 52.012C106.667 51.3773 106.966 50.5 106.966 49.38C106.966 48.26 106.667 47.3873 106.07 46.762C105.482 46.1273 104.661 45.81 103.606 45.81H101.632V52.95H103.606ZM110.323 54V47H111.233L111.387 48.148C111.779 47.2893 112.526 46.86 113.627 46.86C113.749 46.86 113.879 46.8693 114.019 46.888C114.169 46.9067 114.295 46.944 114.397 47L114.201 48.022C114.099 47.9847 113.987 47.9567 113.865 47.938C113.744 47.9193 113.571 47.91 113.347 47.91C113.058 47.91 112.764 47.994 112.465 48.162C112.176 48.33 111.933 48.5867 111.737 48.932C111.541 49.268 111.443 49.6973 111.443 50.22V54H110.323ZM118.718 46.86C119.38 46.86 119.964 47.0047 120.468 47.294C120.981 47.5833 121.382 48.0033 121.672 48.554C121.961 49.0953 122.106 49.744 122.106 50.5C122.106 51.256 121.961 51.9093 121.672 52.46C121.382 53.0013 120.981 53.4167 120.468 53.706C119.964 53.9953 119.38 54.14 118.718 54.14C118.064 54.14 117.481 53.9953 116.968 53.706C116.454 53.4167 116.053 53.0013 115.764 52.46C115.474 51.9093 115.33 51.256 115.33 50.5C115.33 49.744 115.474 49.0953 115.764 48.554C116.053 48.0033 116.454 47.5833 116.968 47.294C117.481 47.0047 118.064 46.86 118.718 46.86ZM118.718 47.826C118.008 47.826 117.453 48.064 117.052 48.54C116.65 49.016 116.45 49.6693 116.45 50.5C116.45 51.3307 116.65 51.984 117.052 52.46C117.453 52.936 118.008 53.174 118.718 53.174C119.427 53.174 119.982 52.936 120.384 52.46C120.785 51.984 120.986 51.3307 120.986 50.5C120.986 49.6693 120.785 49.016 120.384 48.54C119.982 48.064 119.427 47.826 118.718 47.826ZM124.214 56.94V47H125.194L125.264 48.232C125.479 47.8213 125.796 47.49 126.216 47.238C126.645 46.986 127.135 46.86 127.686 46.86C128.255 46.86 128.778 47.0047 129.254 47.294C129.739 47.5833 130.127 47.9987 130.416 48.54C130.705 49.0813 130.85 49.7347 130.85 50.5C130.85 51.256 130.701 51.9093 130.402 52.46C130.113 53.0013 129.725 53.4167 129.24 53.706C128.755 53.9953 128.223 54.14 127.644 54.14C127.121 54.14 126.659 54.028 126.258 53.804C125.857 53.5707 125.549 53.272 125.334 52.908V56.94H124.214ZM127.532 53.16C128.223 53.16 128.759 52.9173 129.142 52.432C129.534 51.9467 129.73 51.3027 129.73 50.5C129.73 49.6973 129.539 49.0533 129.156 48.568C128.783 48.0827 128.255 47.84 127.574 47.84C126.902 47.84 126.361 48.0827 125.95 48.568C125.539 49.0533 125.334 49.6973 125.334 50.5C125.334 51.3027 125.535 51.9467 125.936 52.432C126.337 52.9173 126.869 53.16 127.532 53.16ZM141.507 47V47.966H139.169V54H138.049V47.966H136.649V47H138.049V45.824C138.049 45.1987 138.241 44.69 138.623 44.298C139.006 43.906 139.58 43.71 140.345 43.71C140.588 43.71 140.817 43.738 141.031 43.794C141.246 43.85 141.414 43.9293 141.535 44.032L141.241 44.942C141.017 44.802 140.751 44.732 140.443 44.732C140.042 44.732 139.729 44.83 139.505 45.026C139.281 45.2127 139.169 45.516 139.169 45.936V47H141.507ZM143.565 45.656C143.313 45.656 143.108 45.5813 142.949 45.432C142.8 45.2733 142.725 45.068 142.725 44.816C142.725 44.564 142.8 44.3633 142.949 44.214C143.108 44.0553 143.313 43.976 143.565 43.976C143.817 43.976 144.018 44.0553 144.167 44.214C144.326 44.3633 144.405 44.564 144.405 44.816C144.405 45.068 144.326 45.2733 144.167 45.432C144.018 45.5813 143.817 45.656 143.565 45.656ZM144.125 47V54H143.005V47H144.125ZM147.796 43.78V52.222C147.796 52.5767 147.861 52.824 147.992 52.964C148.122 53.0947 148.332 53.16 148.622 53.16C148.808 53.16 148.962 53.146 149.084 53.118C149.205 53.09 149.368 53.0387 149.574 52.964L149.392 53.944C149.084 54.0747 148.738 54.14 148.356 54.14C147.236 54.14 146.676 53.5147 146.676 52.264V43.78H147.796ZM153.937 54.14C153.274 54.14 152.682 53.9953 152.159 53.706C151.646 53.4167 151.244 53.0013 150.955 52.46C150.666 51.9093 150.521 51.256 150.521 50.5C150.521 49.744 150.666 49.0953 150.955 48.554C151.244 48.0033 151.641 47.5833 152.145 47.294C152.649 47.0047 153.223 46.86 153.867 46.86C154.52 46.86 155.076 47 155.533 47.28C156 47.56 156.354 47.9427 156.597 48.428C156.84 48.904 156.961 49.4407 156.961 50.038C156.961 50.1967 156.956 50.3413 156.947 50.472C156.938 50.6027 156.924 50.7193 156.905 50.822H151.627C151.683 51.5593 151.912 52.1333 152.313 52.544C152.714 52.9547 153.246 53.16 153.909 53.16C154.422 53.16 154.838 53.062 155.155 52.866C155.482 52.67 155.743 52.404 155.939 52.068L156.821 52.586C156.56 53.062 156.182 53.44 155.687 53.72C155.202 54 154.618 54.14 153.937 54.14ZM153.839 47.84C153.251 47.84 152.766 48.0173 152.383 48.372C152.01 48.7173 151.772 49.2027 151.669 49.828H155.841C155.813 49.1933 155.617 48.7033 155.253 48.358C154.889 48.0127 154.418 47.84 153.839 47.84ZM161.611 54.14C160.93 54.14 160.3 53.9953 159.721 53.706C159.152 53.4167 158.713 53.006 158.405 52.474L159.357 51.788C159.562 52.2173 159.861 52.5533 160.253 52.796C160.654 53.0387 161.135 53.16 161.695 53.16C162.19 53.16 162.577 53.0667 162.857 52.88C163.137 52.684 163.277 52.432 163.277 52.124C163.277 51.928 163.212 51.7507 163.081 51.592C162.96 51.424 162.722 51.3027 162.367 51.228L160.687 50.878C160.006 50.738 159.516 50.5047 159.217 50.178C158.928 49.8513 158.783 49.4453 158.783 48.96C158.783 48.5773 158.89 48.2273 159.105 47.91C159.329 47.5927 159.642 47.3407 160.043 47.154C160.454 46.958 160.934 46.86 161.485 46.86C162.176 46.86 162.759 46.9953 163.235 47.266C163.711 47.5367 164.066 47.9193 164.299 48.414L163.361 49.03C163.202 48.6193 162.946 48.3207 162.591 48.134C162.236 47.938 161.868 47.84 161.485 47.84C160.981 47.84 160.589 47.9427 160.309 48.148C160.029 48.3533 159.889 48.61 159.889 48.918C159.889 49.1233 159.959 49.3147 160.099 49.492C160.239 49.66 160.5 49.7813 160.883 49.856L162.633 50.22C163.286 50.3507 163.744 50.5653 164.005 50.864C164.266 51.1627 164.397 51.5267 164.397 51.956C164.397 52.6187 164.14 53.1507 163.627 53.552C163.114 53.944 162.442 54.14 161.611 54.14ZM171.245 54V43.78H172.365V48.05C172.608 47.63 172.93 47.3267 173.331 47.14C173.733 46.9533 174.171 46.86 174.647 46.86C175.151 46.86 175.609 46.958 176.019 47.154C176.43 47.3407 176.757 47.63 176.999 48.022C177.251 48.414 177.377 48.9133 177.377 49.52V54H176.257V49.912C176.257 49.1373 176.089 48.6007 175.753 48.302C175.427 47.994 175.021 47.84 174.535 47.84C174.199 47.84 173.863 47.9193 173.527 48.078C173.191 48.2367 172.911 48.498 172.687 48.862C172.473 49.2167 172.365 49.6927 172.365 50.29V54H171.245ZM182.839 54.14C182.177 54.14 181.584 53.9953 181.061 53.706C180.548 53.4167 180.147 53.0013 179.857 52.46C179.568 51.9093 179.423 51.256 179.423 50.5C179.423 49.744 179.568 49.0953 179.857 48.554C180.147 48.0033 180.543 47.5833 181.047 47.294C181.551 47.0047 182.125 46.86 182.769 46.86C183.423 46.86 183.978 47 184.435 47.28C184.902 47.56 185.257 47.9427 185.499 48.428C185.742 48.904 185.863 49.4407 185.863 50.038C185.863 50.1967 185.859 50.3413 185.849 50.472C185.84 50.6027 185.826 50.7193 185.807 50.822H180.529C180.585 51.5593 180.814 52.1333 181.215 52.544C181.617 52.9547 182.149 53.16 182.811 53.16C183.325 53.16 183.74 53.062 184.057 52.866C184.384 52.67 184.645 52.404 184.841 52.068L185.723 52.586C185.462 53.062 185.084 53.44 184.589 53.72C184.104 54 183.521 54.14 182.839 54.14ZM182.741 47.84C182.153 47.84 181.668 48.0173 181.285 48.372C180.912 48.7173 180.674 49.2027 180.571 49.828H184.743C184.715 49.1933 184.519 48.7033 184.155 48.358C183.791 48.0127 183.32 47.84 182.741 47.84ZM187.993 54V47H188.903L189.057 48.148C189.449 47.2893 190.196 46.86 191.297 46.86C191.419 46.86 191.549 46.8693 191.689 46.888C191.839 46.9067 191.965 46.944 192.067 47L191.871 48.022C191.769 47.9847 191.657 47.9567 191.535 47.938C191.414 47.9193 191.241 47.91 191.017 47.91C190.728 47.91 190.434 47.994 190.135 48.162C189.846 48.33 189.603 48.5867 189.407 48.932C189.211 49.268 189.113 49.6973 189.113 50.22V54H187.993ZM196.416 54.14C195.753 54.14 195.16 53.9953 194.638 53.706C194.124 53.4167 193.723 53.0013 193.434 52.46C193.144 51.9093 193 51.256 193 50.5C193 49.744 193.144 49.0953 193.434 48.554C193.723 48.0033 194.12 47.5833 194.624 47.294C195.128 47.0047 195.702 46.86 196.346 46.86C196.999 46.86 197.554 47 198.012 47.28C198.478 47.56 198.833 47.9427 199.076 48.428C199.318 48.904 199.44 49.4407 199.44 50.038C199.44 50.1967 199.435 50.3413 199.426 50.472C199.416 50.6027 199.402 50.7193 199.383 50.822H194.106C194.162 51.5593 194.39 52.1333 194.792 52.544C195.193 52.9547 195.725 53.16 196.388 53.16C196.901 53.16 197.316 53.062 197.634 52.866C197.96 52.67 198.222 52.404 198.418 52.068L199.3 52.586C199.038 53.062 198.66 53.44 198.166 53.72C197.68 54 197.097 54.14 196.416 54.14ZM196.318 47.84C195.73 47.84 195.244 48.0173 194.862 48.372C194.488 48.7173 194.25 49.2027 194.148 49.828H198.32C198.292 49.1933 198.096 48.7033 197.732 48.358C197.368 48.0127 196.896 47.84 196.318 47.84Z" fill="black"/>
<path d="M142.572 19.7865L149.124 13.1574C149.332 12.9475 149.668 12.9475 149.876 13.1574L156.428 19.7865C156.636 19.9963 156.636 20.3355 156.428 20.5453L156.114 20.8623C155.906 21.0721 155.57 21.0721 155.361 20.8623L150.253 15.684V29.6073C150.253 29.902 150.014 30.143 149.721 30.143H149.279C148.986 30.143 148.747 29.902 148.747 29.6073V15.684L143.639 20.8578C143.43 21.0676 143.094 21.0676 142.886 20.8578L142.572 20.5409C142.364 20.3355 142.364 19.9963 142.572 19.7865ZM158 32.4643V32.1072C158 31.8126 157.761 31.5715 157.469 31.5715L141.531 31.5715C141.239 31.5715 141 31.8126 141 32.1072V32.4643C141 32.7589 141.239 33 141.531 33H157.469C157.761 33 158 32.7589 158 32.4643Z" fill="black"/>
<rect x="202.503" y="1.06543" width="20" height="20" rx="3" transform="rotate(7 202.503 1.06543)" fill="#FFC000"/>
<path d="M218.198 7.81893L205.074 6.20755C204.861 6.18136 204.668 6.32672 204.643 6.53236L204.597 6.90455C204.572 7.1102 204.724 7.29796 204.937 7.32415L205.323 7.37154L204.546 13.6989C204.496 14.11 204.801 14.4858 205.227 14.5381L210.052 15.1305L209.927 16.1476L207.832 17.7239C207.663 17.8508 207.634 18.0864 207.767 18.2503L208.008 18.5469C208.141 18.7108 208.385 18.7408 208.554 18.614L210.381 17.2394L211.821 19.0153C211.954 19.1793 212.198 19.2093 212.367 19.0824L212.672 18.8525C212.84 18.7256 212.869 18.49 212.736 18.3261L211.085 16.2898L211.21 15.2727L216.035 15.8651C216.461 15.9175 216.848 15.6266 216.898 15.2155L217.675 8.88814L218.061 8.93553C218.274 8.96172 218.467 8.81637 218.493 8.61073L218.538 8.23853C218.564 8.03289 218.411 7.84512 218.198 7.81893ZM215.786 14.7011L205.75 13.4689L206.481 7.51372L216.517 8.74596L215.786 14.7011Z" fill="white"/>
<path d="M56.5584 51.1104L49.2972 52.6926L46.3424 50.7674L40.2914 52.0859C39.2888 52.3044 38.6555 53.305 38.8769 54.3209L41.2819 65.358C41.5032 66.3739 42.4954 67.0204 43.498 66.8019L59.2306 63.3738C60.2332 63.1553 60.8664 62.1547 60.645 61.1387L58.7745 52.5544C58.5531 51.5384 57.561 50.892 56.5584 51.1104Z" fill="#86BAFF"/>
<rect x="4.67725" y="4.0083" width="20" height="20" rx="3" transform="rotate(13.5 4.67725 4.0083)" fill="#5892FF"/>
<line x1="8.20608" y1="10.4435" x2="17.9298" y2="12.778" stroke="white"/>
<line x1="7.50564" y1="13.3605" x2="17.2293" y2="15.6949" stroke="white"/>
<line x1="6.80544" y1="16.2775" x2="16.5291" y2="18.6119" stroke="white"/>
<line x1="6.105" y1="19.195" x2="10.9669" y2="20.3622" stroke="white"/>
<rect x="68.0229" y="2.46094" width="20" height="20" rx="3" transform="rotate(-7 68.0229 2.46094)" fill="#FF5B57"/>
<path d="M74.448 9.94641C75.0039 9.87817 75.4534 9.95932 75.7968 10.1899C76.1441 10.4152 76.3477 10.7711 76.4074 11.2574C76.4671 11.7437 76.356 12.1406 76.074 12.4479C75.7961 12.75 75.3792 12.9352 74.8234 13.0035L73.9132 13.1152L74.1009 14.6437L72.9059 14.7905L72.3429 10.2049L74.448 9.94641ZM74.5258 12.1302C75.0306 12.0682 75.2572 11.8265 75.2054 11.405C75.1537 10.9835 74.8754 10.8037 74.3705 10.8657L73.6479 10.9544L73.8032 12.2189L74.5258 12.1302ZM78.9292 9.3962C79.6471 9.30805 80.2204 9.43983 80.6492 9.79153C81.0825 10.1427 81.3441 10.6842 81.434 11.416C81.5239 12.1478 81.401 12.7365 81.0655 13.1821C80.7346 13.627 80.2101 13.8936 79.4922 13.9818L77.5468 14.2206L76.9838 9.63506L78.9292 9.3962ZM79.2632 13.093C79.6523 13.0453 79.9206 12.8948 80.0682 12.6416C80.2198 12.3832 80.2675 12.0247 80.2112 11.5661C80.1549 11.1076 80.0222 10.7736 79.8131 10.5642C79.6081 10.3496 79.311 10.2661 78.922 10.3139L78.2897 10.3916L78.6309 13.1707L79.2632 13.093ZM85.6484 9.50917L83.2792 9.80007L83.3987 10.7728L85.2885 10.5407L85.4019 11.4648L83.5121 11.6968L83.7288 13.4616L82.5338 13.6083L81.9707 9.02274L85.535 8.58511L85.6484 9.50917Z" fill="white"/>
<rect x="240.077" y="45.2939" width="20" height="20" rx="3" transform="rotate(8 240.077 45.2939)" fill="#171717"/>
<path d="M247.025 57.8852L246.899 58.7864L242.975 58.235L243.096 57.3754L246.049 54.9206L243.54 54.5679L243.667 53.6668L247.458 54.1997L247.338 55.0592L244.398 57.516L247.025 57.8852ZM249.453 54.48L248.81 59.0551L247.618 58.8875L248.261 54.3125L249.453 54.48ZM252.568 54.9178C253.123 54.9957 253.536 55.1905 253.808 55.502C254.085 55.8096 254.19 56.206 254.122 56.6912C254.053 57.1765 253.843 57.531 253.491 57.7549C253.145 57.9748 252.694 58.0458 252.14 57.9678L251.231 57.8402L251.017 59.3652L249.825 59.1976L250.468 54.6226L252.568 54.9178ZM252.078 57.0473C252.582 57.1181 252.863 56.9432 252.922 56.5227C252.981 56.1022 252.759 55.8565 252.255 55.7857L251.534 55.6844L251.357 56.946L252.078 57.0473Z" fill="white"/>
<rect x="281.729" y="5.54834" width="20" height="20" rx="3" transform="rotate(18 281.729 5.54834)" fill="#8500BC"/>
<path d="M295.026 16.8099C294.893 16.7666 294.745 16.7628 294.594 16.81L291.744 17.5696L292.166 16.27C292.357 15.6816 292.014 15.0427 291.4 14.8433L284.695 12.6645C284.081 12.465 283.428 12.7802 283.237 13.3687L281.148 19.7973C280.957 20.3857 281.3 21.0245 281.914 21.224L288.619 23.4028C289.233 23.6023 289.886 23.287 290.077 22.6986L290.5 21.399L292.36 23.6866C292.453 23.8155 292.578 23.898 292.709 23.9406C293.065 24.0563 293.492 23.8747 293.626 23.4623L295.487 17.7359C295.621 17.3235 295.382 16.9256 295.026 16.8099ZM290.497 17.9013L289.057 22.3348C289.041 22.3396 289.01 22.3468 288.967 22.3328L282.261 20.1541C282.218 20.1401 282.197 20.1184 282.188 20.103L284.258 13.7324C284.273 13.7277 284.304 13.7205 284.347 13.7344L291.053 15.9132C291.096 15.9272 291.117 15.9489 291.126 15.9642L290.497 17.9013ZM292.807 22.4766L290.909 20.1396L291.334 18.8312L294.244 18.0565L292.807 22.4766Z" fill="white"/>
</svg>
