<svg xmlns="http://www.w3.org/2000/svg" xmlns:xlink="http://www.w3.org/1999/xlink" width="42" height="44.785" viewBox="0 0 42 44.785">
  <defs>
    <linearGradient id="linear-gradient" x1="0.413" y1="1" x2="1.051" y2="0.44" gradientUnits="objectBoundingBox">
      <stop offset="0" stop-color="#ed55eb"/>
      <stop offset="0.369" stop-color="#17e0d8"/>
      <stop offset="0.642" stop-color="#00ffc2"/>
      <stop offset="1" stop-color="#ffec06"/>
    </linearGradient>
  </defs>
  <g id="magic-wand" transform="translate(-16.834)">
    <path id="Path_1322" data-name="Path 1322" d="M44.7,13.522a.277.277,0,0,0-.392,0l-27.4,27.4a.277.277,0,0,0,0,.392L20.308,44.7a.275.275,0,0,0,.391,0l27.4-27.4a.277.277,0,0,0,0-.392Zm-24,29.159L18.938,40.92l5.089-5.089,1.761,1.761ZM41.443,21.938l-1.762-1.761,5.089-5.088,1.761,1.762ZM44.8,6.486a.276.276,0,0,1,.042-.322L45.863,5.1l-.7-1.295a.277.277,0,0,1,.364-.381l1.327.636,1.015-1.066a.277.277,0,0,1,.476.228l-.2,1.459,1.327.636a.277.277,0,0,1-.069.523L47.958,6.1l-.195,1.46a.277.277,0,0,1-.394.213.284.284,0,0,1-.124-.118l-.7-1.294L45.1,6.626A.274.274,0,0,1,44.8,6.486Zm6.416,4.683a.18.18,0,0,1-.072.2l-.79.535.266.917a.18.18,0,0,1-.283.192l-.754-.586-.789.536a.18.18,0,0,1-.274-.1.172.172,0,0,1,0-.11l.323-.9L48.1,11.27a.179.179,0,0,1,.116-.321l.953.032.325-.9a.18.18,0,0,1,.341.011l.265.917.953.031A.178.178,0,0,1,51.22,11.169Zm7.035,2.68A.138.138,0,0,1,58.19,14l-.644.38.161.73a.14.14,0,0,1-.151.17.142.142,0,0,1-.079-.034l-.56-.5-.644.38a.141.141,0,0,1-.2-.177l.3-.686-.56-.5a.14.14,0,0,1,.106-.245l.745.072.3-.685a.139.139,0,0,1,.142-.084.141.141,0,0,1,.123.11l.162.73.744.071A.136.136,0,0,1,58.256,13.849Zm.579-4.085-3.412,1.414-.117-.327ZM51.321,4.278,52.911,0l-1.26,4.386ZM53.31,18.1l.576,3.834-.916-3.767ZM43.447,9.025l-4.488-.511,4.514.164Z" fill="url(#linear-gradient)"/>
  </g>
</svg>
