<?xml version="1.0" encoding="UTF-8"?>
<svg width="193px" height="54px" viewBox="0 0 193 54" version="1.1" xmlns="http://www.w3.org/2000/svg" xmlns:xlink="http://www.w3.org/1999/xlink">
    <!-- Generator: Sketch 57.1 (83088) - https://sketch.com -->
    <title>Group 30 Copy 2</title>
    <desc>Created with Sketch.</desc>
    <defs>
        <linearGradient x1="42.6258277%" y1="18.2480968%" x2="69.3405136%" y2="82.9972645%" id="linearGradient-1">
            <stop stop-color="#ED55EB" offset="0%"></stop>
            <stop stop-color="#17E0D8" offset="37.3592964%"></stop>
            <stop stop-color="#00FFC2" offset="60.0932057%"></stop>
            <stop stop-color="#FFEC06" offset="100%"></stop>
        </linearGradient>
    </defs>
    <g id="Page-1" stroke="none" stroke-width="1" fill="none" fill-rule="evenodd">
        <g id="Group-30-Copy-2">
            <g id="Group-46-Copy-9">
                <path d="M32,0 C40.8738924,0 48.755267,4.21822811 53.720172,10.7448794 L53.8356881,10.7432815 L53.8356881,10.7432815 L54.212659,10.7410146 C59.6457765,11.7711014 64,17.3007445 64,23.660141 C64,28.4871213 61.3155725,32.4851214 58.2404535,34.1316248 C55.0903646,45.5825031 44.5354697,54 32,54 C19.4645303,54 8.90963538,45.5825031 5.7587385,34.1310545 C2.68442752,32.4851214 0,28.4871213 0,23.660141 C0,17.3007445 4.35422346,11.7711014 9.78734105,10.7410146 C9.95428861,10.7410146 10.1188767,10.7423248 10.2811387,10.7449262 C15.244733,4.21822811 23.1261076,0 32,0 Z" id="Combined-Shape" fill="#171717"></path>
                <path d="M22,12.0544611 C28.2878841,8.87627456 35.7121159,8.87627456 42,12.0544611 C48.133099,15.1544121 52,21.441708 52,28.3137237 L52,33.2022416 C52,39.2002768 47.8490353,44.3998792 42,45.7284922 C35.4171796,47.223785 28.5828204,47.223785 22,45.7284922 C16.1509647,44.3998792 12,39.2002768 12,33.2022416 L12,28.3137237 C12,21.441708 15.866901,15.1544121 22,12.0544611 Z" id="Rectangle" fill="url(#linearGradient-1)"></path>
            </g>
            <path d="M87.868,39.528 C85.726656,39.528 83.9446738,39.2126698 82.522,38.582 C81.0993262,37.9513302 80.05067,37.1226718 79.376,36.096 C78.70133,35.0693282 78.364,33.9546727 78.364,32.752 C78.364,32.3999982 78.3713333,32.1580007 78.386,32.026 C78.4006667,31.8939993 78.408,31.8133335 78.408,31.784 L82.236,31.784 L82.236,32.224 C82.236,33.6026736 82.7786612,34.6366632 83.864,35.326 C84.9493388,36.0153368 86.3573247,36.36 88.088,36.36 C89.5840075,36.36 90.8233284,36.0593363 91.806,35.458 C92.7886716,34.8566637 93.28,34.0133388 93.28,32.928 C93.28,32.0773291 93.0013361,31.3806694 92.444,30.838 C91.8866639,30.2953306 91.1973374,29.8700015 90.376,29.562 C89.5546626,29.2539985 88.440007,28.9240018 87.032,28.572 C85.3306582,28.1319978 83.944672,27.6920022 82.874,27.252 C81.803328,26.8119978 80.8940037,26.1593377 80.146,25.294 C79.3979963,24.4286623 79.024,23.3066736 79.024,21.928 C79.024,19.9039899 79.8526584,18.2980059 81.51,17.11 C83.1673416,15.9219941 85.4039859,15.328 88.22,15.328 C89.9800088,15.328 91.5053269,15.6139971 92.796,16.186 C94.0866731,16.7580029 95.0619967,17.5206619 95.722,18.474 C96.3820033,19.4273381 96.712,20.4906608 96.712,21.664 L96.668,22.5 L92.884,22.5 L92.884,22.104 C92.884,21.0773282 92.4806707,20.22667 91.674,19.552 C90.8673293,18.87733 89.5693423,18.54 87.78,18.54 C86.0199912,18.54 84.7880035,18.8553302 84.084,19.486 C83.3799965,20.1166698 83.028,20.8426626 83.028,21.664 C83.028,22.33867 83.2773308,22.8959978 83.776,23.336 C84.2746692,23.7760022 84.890663,24.1279987 85.624,24.392 C86.357337,24.6560013 87.3839934,24.9493317 88.704,25.272 C90.5226758,25.7413357 92.0039943,26.2033311 93.148,26.658 C94.2920057,27.1126689 95.2673293,27.8019954 96.074,28.726 C96.8806707,29.6500046 97.284,30.874659 97.284,32.4 C97.284,34.7760119 96.4260086,36.5579941 94.71,37.746 C92.9939914,38.9340059 90.7133476,39.528 87.868,39.528 Z M101.948,15.856 L104.852,15.856 L105.336,18.98 L105.6,18.98 C106.36267,17.7773273 107.367327,16.8680031 108.614,16.252 C109.860673,15.6359969 111.246659,15.328 112.772,15.328 C115.705348,15.328 117.963992,16.3106568 119.548,18.276 C121.132008,20.2413432 121.924,23.2919793 121.924,27.428 C121.924,31.4760202 121.139341,34.5046566 119.57,36.514 C118.000659,38.5233434 115.852014,39.528 113.124,39.528 C111.481325,39.528 110.088006,39.2786692 108.944,38.78 C107.799994,38.2813308 106.84667,37.4746722 106.084,36.36 L105.82,36.36 L105.82,46.612 L101.948,46.612 L101.948,15.856 Z M111.804,36.316 C113.300007,36.316 114.487996,36.0373361 115.368,35.48 C116.248004,34.9226639 116.893331,34.0133396 117.304,32.752 C117.714669,31.4906604 117.92,29.7746775 117.92,27.604 L117.92,27.428 C117.92,25.227989 117.714669,23.4826731 117.304,22.192 C116.893331,20.9013269 116.240671,19.9700029 115.346,19.398 C114.451329,18.8259971 113.270674,18.54 111.804,18.54 C109.750656,18.54 108.240005,19.2879925 107.272,20.784 C106.303995,22.2800075 105.82,24.494652 105.82,27.428 L105.82,27.604 C105.82,30.478681 106.296662,32.649326 107.25,34.116 C108.203338,35.582674 109.721323,36.316 111.804,36.316 Z M132.704,39.528 C130.709323,39.528 128.934674,39.0586714 127.38,38.12 C125.825326,37.1813286 125.048,35.4800123 125.048,33.016 C125.048,30.0533185 126.367987,28.0220055 129.008,26.922 C131.648013,25.8219945 135.461308,25.272 140.448,25.272 L140.448,22.72 C140.448,21.3706599 140.06667,20.3366703 139.304,19.618 C138.54133,18.8993297 137.162677,18.54 135.168,18.54 C133.290657,18.54 131.948671,18.8919965 131.142,19.596 C130.335329,20.3000035 129.932,21.1653282 129.932,22.192 L129.932,22.72 L126.192,22.72 C126.162667,22.5439991 126.148,22.2213357 126.148,21.752 C126.148,19.6986564 126.998658,18.1146722 128.7,17 C130.401342,15.8853278 132.674652,15.328 135.52,15.328 C138.394681,15.328 140.579993,15.9293273 142.076,17.132 C143.572007,18.3346727 144.32,20.035989 144.32,22.236 L144.32,34.776 C144.32,35.3040026 144.466665,35.6926654 144.76,35.942 C145.053335,36.1913346 145.419998,36.316 145.86,36.316 L147.62,36.316 L147.62,38.824 C146.85733,39.1760018 145.860006,39.352 144.628,39.352 C143.630662,39.352 142.79467,39.0513363 142.12,38.45 C141.44533,37.8486637 140.990668,37.0493383 140.756,36.052 L140.448,36.052 C139.655996,37.1373388 138.578007,37.9879969 137.214,38.604 C135.849993,39.2200031 134.346675,39.528 132.704,39.528 Z M133.716,36.316 C134.860006,36.316 135.945328,36.0813357 136.972,35.612 C137.998672,35.1426643 138.834663,34.4460046 139.48,33.522 C140.125337,32.5979954 140.448,31.4760066 140.448,30.156 L140.448,28.484 C136.663981,28.484 133.826009,28.7846637 131.934,29.386 C130.041991,29.9873363 129.096,31.1239916 129.096,32.796 C129.096,34.0573396 129.484663,34.9593306 130.262,35.502 C131.039337,36.0446694 132.190659,36.316 133.716,36.316 Z M159.676,39.528 C156.155982,39.528 153.574675,38.5526764 151.932,36.602 C150.289325,34.6513236 149.468,31.5933542 149.468,27.428 C149.468,23.2919793 150.296658,20.2413432 151.954,18.276 C153.611342,16.3106568 156.185316,15.328 159.676,15.328 C162.844016,15.328 165.161326,16.090659 166.628,17.616 C168.094674,19.141341 168.828,21.4146516 168.828,24.436 L164.868,24.436 C164.868,22.3533229 164.494004,20.8500046 163.746,19.926 C162.997996,19.0019954 161.641343,18.54 159.676,18.54 C157.534656,18.54 155.965338,19.2366597 154.968,20.63 C153.970662,22.0233403 153.472,24.2893176 153.472,27.428 L153.472,27.604 C153.472,30.7133489 153.955995,32.9426599 154.924,34.292 C155.892005,35.6413401 157.475989,36.316 159.676,36.316 C161.61201,36.316 162.997996,35.8246716 163.834,34.842 C164.670004,33.8593284 165.088,32.3853432 165.088,30.42 L168.828,30.42 C168.828,33.0600132 168.080007,35.2379914 166.584,36.954 C165.087993,38.6700086 162.785349,39.528 159.676,39.528 Z M182.688,39.528 C178.962648,39.528 176.190676,38.5453432 174.372,36.58 C172.553324,34.6146568 171.644,31.5640207 171.644,27.428 C171.644,23.2919793 172.553324,20.2413432 174.372,18.276 C176.190676,16.3106568 178.962648,15.328 182.688,15.328 C186.032017,15.328 188.532658,16.2153245 190.19,17.99 C191.847342,19.7646755 192.676,22.6173137 192.676,26.548 L192.676,28.484 L175.648,28.484 C175.794667,31.1533467 176.432661,33.1259936 177.562,34.402 C178.691339,35.6780064 180.399989,36.316 182.688,36.316 C184.536009,36.316 186.031994,35.8906709 187.176,35.04 C188.320006,34.1893291 188.892,32.8840088 188.892,31.124 L192.676,31.124 C192.676,33.8226802 191.744676,35.8979927 189.882,37.35 C188.019324,38.8020073 185.621348,39.528 182.688,39.528 Z M188.628,25.272 C188.628,20.7839776 186.64802,18.54 182.688,18.54 C180.487989,18.54 178.838006,19.0679947 177.738,20.124 C176.637994,21.1800053 175.970668,22.8959881 175.736,25.272 L188.628,25.272 Z" id="space" fill="#171717" fill-rule="nonzero"></path>
        </g>
    </g>
</svg>