<svg xmlns="http://www.w3.org/2000/svg" xmlns:xlink="http://www.w3.org/1999/xlink" width="500" height="500" viewBox="0 0 500 500">
  <defs>
    <style>
      .cls-1 {
        fill: none;
      }

      .cls-2 {
        clip-path: url(#clip-path);
      }

      .cls-3 {
        fill: #09090a;
      }

      .cls-4 {
        fill: #141414;
      }

      .cls-5 {
        fill: #1c1c1c;
      }

      .cls-6 {
        fill: #fff;
      }
    </style>
    <clipPath id="clip-path">
      <rect id="Rectangle_698" data-name="Rectangle 698" class="cls-1" width="500" height="500" rx="6"/>
    </clipPath>
  </defs>
  <g id="yes" class="cls-2">
    <path id="Path_173" data-name="Path 173" class="cls-3" d="M372.221-88.735c-15.747-22.292-34.415-42.831-57.4-56.19-27.294-15.867-58.89-20.688-89.787-24.36a1642.125,1642.125,0,0,0-352.73-3.758c-9.31.908-19.008,2.035-26.869,7.429-15.15,10.4-18.19,32.24-19.753,51.365C-187.99,53-200.734,220.835-194.564,388.592c1.7,46.218,5.34,94.219,27,134.3,6.894,12.758,15.952,24.854,28.37,31.279,12.25,6.353,26.449,6.578,40.041,5.677,69.5-4.61,134.8-34.954,201.069-57.75,23.5-8.086,47.585-15.4,68.638-29.162,17.8-11.638,32.858-27.551,46.128-44.737,20.484-26.554,37.275-57.035,44.521-90.541,9.8-45.307,1.644-92.486-.762-138.913A556.27,556.27,0,0,1,303.642-46.589" transform="translate(132.558 164.999)"/>
    <path id="Path_174" data-name="Path 174" class="cls-4" d="M-160.345-179.059c-66.994-.686-135.563.5-198.445,25.152-35.522,13.925-68.312,35.021-104.039,48.329-34.123,12.705-70.208,18.051-105.317,27.207-56.724,14.8-111.7,40.1-156.952,79.456S-805.4,94.536-818,155.325c-1.759,8.49-3.074,17.394-1.013,25.8,4.644,18.972,24.059,28.655,41.564,34.66,82.371,28.267,170.588,30.9,254.457,53.631,31.671,8.586,64.007,20.934,86.325,46.377,5.387,6.144,10.323,15.028,6.7,22.5-1.927,3.977-5.831,6.359-9.636,8.285-24.444,12.463-52.13,15.2-79.169,17.02-109.168,7.353-225.481,4.759-318.455,66.2-19.983,13.206-40.523,35.243-34.67,59.533,3.963,16.43,18.9,26.991,33.595,33.52,28.634,12.725,60.106,16.092,91.1,17.623,68.482,3.384,137.077-1.514,205.46-6.409,70.907-5.073,142.132-10.193,211.537-26.481,27.294-6.406,54.613-14.694,78.548-30.077s44.4-38.646,52.3-67.235c11.476-41.586-4.787-85.275-15.952-126.957-15.265-56.938-20.944-118.841-2.975-174.845C-190.937,23.185-113.829-35.5-85.565-120.457c4.041-12.168,6.991-25.745,2.648-37.8-5.663-15.728-21.861-23.962-37.182-28.088s-31.73-5.928-44.922-15.207" transform="translate(598.952 178.903)"/>
    <path id="Path_175" data-name="Path 175" class="cls-3" d="M964.219-184.639a661.508,661.508,0,0,0-93.294,46.351c-35.653,21.361-73.615,54.48-70.817,97.981.662,10.313,3.7,20.572,2.356,30.819-2.26,17.232-16.08,29.795-29.321,39.982-66.043,50.8-146.172,90.584-182.807,168.121C579.4,221.761,572.992,247.99,575.961,273.7c2.546,22.1,11.846,43.12,12.144,65.382.585,43.507-32.212,78.5-46.507,119.252-4.184,11.93-6.795,24.983-4.193,37.42,5.284,25.185,29.65,40.1,52.776,47.673,68.464,22.425,142.362,7.416,213.685,14.309,66.518,6.429,130.071,31.863,195.787,44.631,111.232,21.613,228.6,5.759,331.264-44.737,41.247-20.291,84.612-53.333,87.931-101.632,2.565-37.337-20.62-71.662-48.3-94.7s-60.391-38.3-88.687-60.474c-40.467-31.71-71.013-77.544-85.758-128.743-22.915-79.516-7.74-165.832-20.515-247.9-3.534-22.7-9.394-45.469-21.4-64.584-29.868-47.494-88.588-61.054-141.429-70.737" transform="translate(-372.276 185.315)"/>
    <path id="Path_176" data-name="Path 176" class="cls-4" d="M1583.74-156.047c-29.066,15.877-62.163,23.008-89.426,42.152s-47.663,57.469-33.11,88.626c13.549,29.009,52.907,43.246,53.8,75.642.395,14.25-7.681,27.5-18.029,36.542s-22.855,14.667-34.931,20.8a429.739,429.739,0,0,0-97.763,68.312c-19.474,18.077-38.944,45.224-28.954,70.608,6.347,16.135,22.582,24.91,38,30.912a273.684,273.684,0,0,0,108.3,18.561c25.124-.848,54.707-3.314,70.69,17.368,18.265,23.628,5.333,61.011,18.234,88.367,12.871,27.3,46.047,34.749,74.7,34.8s59.555-3.523,83.859,12.662c19.312,12.861,30.521,35.872,47.847,51.626,20.866,18.969,49.538,26.093,76.924,24.566s53.834-10.966,79.263-21.931c9.3-4.013,19.091-8.749,24.385-17.835,7.624-13.09,3.276-30-.989-44.717-17.879-61.73-30.533-125.651-31.189-190.251C1924.3,147.17,1953.97,45.717,1957.284-57.811c.8-24.831-.17-50.748-11.047-72.722-12.682-25.636-37.181-42.321-62.421-53.094a221.36,221.36,0,0,0-96.225-17.63c-66.248,2.857-129,35.541-195.264,38.033" transform="translate(-921.03 178.839)"/>
    <path id="Path_177" data-name="Path 177" class="cls-5" d="M1992.169-171.013a1057.629,1057.629,0,0,0-148.4,59.692c-11.19,5.511-22.526,11.406-31.164,20.771s-14.2,22.991-11.289,35.756c1.243,5.375,3.842,10.253,6.425,15.052l17.021,31.6c6.872,12.762,13.86,25.848,16.254,40.339,4.771,28.877-9.6,57.661-27.792,79.665s-40.557,39.952-57.153,63.334c-6.5,9.146-12.271,20.128-10.732,31.482,1.476,10.9,9.412,19.552,17.956,25.749,22.625,16.39,50.79,20.619,77.6,26.428s54.983,14.743,72.53,37.115c10.35,13.2,15.958,29.861,25,44.107,20.95,33,58.1,49.863,94.475,59.04,59.077,14.912,125.471,12.656,175.257-24.387,9.5-7.075,19.072-17.265,18.183-29.589-.4-5.574-2.965-10.714-5.946-15.313-19.213-29.649-56.485-42.944-72.114-74.893-8.147-16.669-9.446-36.84-19.775-52.07-9.409-13.878-25.14-21.573-40.949-24.585s-32.016-1.915-48.071-1.554a518.906,518.906,0,0,1-83.412-4.888c-13.832-1.932-27.853-4.513-40.247-11.337s-23.092-18.558-25.948-33.138c-4.066-20.7,7.96-40.562,14.467-60.547,10.226-31.419,6.4-67.679-10.112-95.9-8.7-14.843-21.087-32.754-12.533-47.69,3.177-5.547,8.685-9.034,14.091-12.049,56.316-31.419,126.452-37.022,171.984-84.308,7.183-7.459,13.988-17.732,11.292-28.025a150.586,150.586,0,0,0-62.8.08" transform="translate(-1205.284 180.824)"/>
    <path id="Path_178" data-name="Path 178" class="cls-5" d="M39.05-219.106c-24.475,6.747-49.808,13.951-69.3,31.114-14.83,13.06-25.386,31.187-41.058,43.08-16.185,12.284-36.274,16.791-55.673,21.361C-243.136-96.189-357.517-56.051-460.707,7.054c-20.074,12.261-40.178,25.848-54,45.652-7.985,11.433-13.767,26.044-10.311,39.816,5.869,23.4,33.1,30.951,55.739,33.006,34.014,3.075,68.206,3.075,102.326,1.819,21.3-.775,47.427.8,56.926,21.132,5.082,10.876,4.013,25.288,12.477,33.427,4.485,4.308,10.758,5.8,16.785,6.3,22.144,1.872,44.894-7.953,59.587-25.7,10.609-12.818,16.163-34.447,4.286-45.946-4.184-4.056-9.754-5.991-15.144-7.814l-51.253-17.325c-10.568-3.576-22-7.847-27.879-17.865-5.7-9.71-4.439-22.789,1-32.668S-295.732,23.9-286.3,18.408C-253.232-.839-212.9-3.172-181.141-24.759c14.112-9.59,26.032-22.687,40.791-31.1C-97.95-80.024-42.935-60.449.457-82.565c17.584-8.964,31.649-24.052,45.335-38.848l76.225-82.4c10.8-11.671,22.156-29.758,12.713-42.7-6.643-9.1-19.433-8.765-30.151-7.327a696.312,696.312,0,0,0-79.921,15.545" transform="translate(359.897 214.38)"/>
    <path id="Path_179" data-name="Path 179" class="cls-5" d="M-347.38,1631.646a105.158,105.158,0,0,0,72.144-14.538c9.272-5.756,17.761-12.964,27.478-17.812,19.53-9.75,42.025-9.106,63.575-8.285,11.243.434,25.718,3.828,27.092,15.727,1.069,9.253-7.249,16.6-15.277,20.287-32.149,14.773-71.743,2.608-102.438,20.546-13.546,7.923-23.766,20.9-35.942,31.048-23.232,19.356-54.107,27.912-83.241,23.077-15.616-2.594-32.8-11.386-36-27.886" transform="translate(293.704 -1019.346)"/>
    <ellipse id="Ellipse_146" data-name="Ellipse 146" class="cls-6" cx="2.306" cy="2.458" rx="2.306" ry="2.458" transform="translate(86.461 148.712)"/>
    <ellipse id="Ellipse_147" data-name="Ellipse 147" class="cls-6" cx="2.306" cy="3.687" rx="2.306" ry="3.687" transform="translate(106.058 61.451)"/>
    <ellipse id="Ellipse_148" data-name="Ellipse 148" class="cls-6" cx="2.882" cy="3.073" rx="2.882" ry="3.073" transform="translate(100.294 103.238)"/>
    <ellipse id="Ellipse_149" data-name="Ellipse 149" class="cls-6" cx="1.729" cy="1.844" rx="1.729" ry="1.844" transform="translate(171.768 79.887)"/>
    <ellipse id="Ellipse_150" data-name="Ellipse 150" class="cls-6" cx="1.153" cy="1.844" rx="1.153" ry="1.844" transform="translate(163.698 170.835)"/>
    <ellipse id="Ellipse_151" data-name="Ellipse 151" class="cls-6" cx="0.576" cy="0.615" rx="0.576" ry="0.615" transform="translate(292.813 340.44)"/>
    <ellipse id="Ellipse_152" data-name="Ellipse 152" class="cls-6" cx="4.035" cy="4.916" rx="4.035" ry="4.916" transform="translate(284.743 446.137)"/>
    <ellipse id="Ellipse_153" data-name="Ellipse 153" class="cls-6" cx="2.306" cy="2.458" rx="2.306" ry="2.458" transform="translate(328.55 503.901)"/>
    <ellipse id="Ellipse_154" data-name="Ellipse 154" class="cls-6" cx="0.576" cy="2.458" rx="0.576" ry="2.458" transform="translate(275.52 511.275)"/>
    <ellipse id="Ellipse_155" data-name="Ellipse 155" class="cls-6" cx="1.153" cy="1.844" rx="1.153" ry="1.844" transform="translate(251.312 505.13)"/>
    <ellipse id="Ellipse_156" data-name="Ellipse 156" class="cls-6" cx="3.458" cy="3.687" rx="3.458" ry="3.687" transform="translate(408.093 626.803)"/>
    <ellipse id="Ellipse_157" data-name="Ellipse 157" class="cls-6" cx="1.729" cy="1.229" rx="1.729" ry="1.229" transform="translate(449.594 583.787)"/>
    <ellipse id="Ellipse_158" data-name="Ellipse 158" class="cls-6" cx="0.576" cy="0.615" rx="0.576" ry="0.615" transform="translate(419.621 540.772)"/>
    <ellipse id="Ellipse_159" data-name="Ellipse 159" class="cls-6" cx="0.576" cy="1.844" rx="0.576" ry="1.844" transform="translate(471.498 491.611)"/>
    <ellipse id="Ellipse_160" data-name="Ellipse 160" class="cls-6" cx="1.153" cy="0.615" rx="1.153" ry="0.615" transform="translate(544.124 514.962)"/>
    <ellipse id="Ellipse_161" data-name="Ellipse 161" class="cls-6" cx="0.576" cy="2.458" rx="0.576" ry="2.458" transform="translate(552.194 560.436)"/>
    <ellipse id="Ellipse_162" data-name="Ellipse 162" class="cls-6" cx="1.729" cy="0.615" rx="1.729" ry="0.615" transform="translate(590.236 526.023)"/>
    <ellipse id="Ellipse_163" data-name="Ellipse 163" class="cls-6" cx="2.306" cy="1.844" rx="2.306" ry="1.844" transform="translate(524.527 416.64)"/>
    <ellipse id="Ellipse_165" data-name="Ellipse 165" class="cls-6" cx="1.153" cy="1.844" rx="1.153" ry="1.844" transform="translate(575.25 296.195)"/>
    <ellipse id="Ellipse_168" data-name="Ellipse 168" class="cls-6" cx="1.729" cy="0.615" rx="1.729" ry="0.615" transform="translate(515.304 174.522)"/>
    <ellipse id="Ellipse_169" data-name="Ellipse 169" class="cls-6" cy="0.615" ry="0.615" transform="translate(380.426 173.293)"/>
    <ellipse id="Ellipse_170" data-name="Ellipse 170" class="cls-6" cx="1.729" cy="2.458" rx="1.729" ry="2.458" transform="translate(258.229 216.309)"/>
    <ellipse id="Ellipse_172" data-name="Ellipse 172" class="cls-6" cx="1.153" cy="1.229" rx="1.153" ry="1.229" transform="translate(161.393 376.082)"/>
    <ellipse id="Ellipse_173" data-name="Ellipse 173" class="cls-6" cx="2.882" cy="3.687" rx="2.882" ry="3.687" transform="translate(106.058 341.669)"/>
    <ellipse id="Ellipse_174" data-name="Ellipse 174" class="cls-6" cx="1.153" cy="0.615" rx="1.153" ry="0.615" transform="translate(86.461 254.408)"/>
    <ellipse id="Ellipse_175" data-name="Ellipse 175" class="cls-6" cx="1.729" cy="1.229" rx="1.729" ry="1.229" transform="translate(17.292 211.392)"/>
    <ellipse id="Ellipse_176" data-name="Ellipse 176" class="cls-6" cx="2.306" cy="1.229" rx="2.306" ry="1.229" transform="translate(54.182 489.152)"/>
    <ellipse id="Ellipse_177" data-name="Ellipse 177" class="cls-6" cx="1.153" cy="1.229" rx="1.153" ry="1.229" transform="translate(56.487 457.198)"/>
    <ellipse id="Ellipse_178" data-name="Ellipse 178" class="cls-6" cx="2.306" cy="0.615" rx="2.306" ry="0.615" transform="translate(34.584 395.746)"/>
    <ellipse id="Ellipse_179" data-name="Ellipse 179" class="cls-6" cx="0.576" cy="1.229" rx="0.576" ry="1.229" transform="translate(20.75 486.694)"/>
    <ellipse id="Ellipse_180" data-name="Ellipse 180" class="cls-6" cx="0.576" cy="2.458" rx="0.576" ry="2.458" transform="translate(106.058 511.275)"/>
    <ellipse id="Ellipse_181" data-name="Ellipse 181" class="cls-6" cx="0.576" cy="0.615" rx="0.576" ry="0.615" transform="translate(100.294 599.765)"/>
    <ellipse id="Ellipse_182" data-name="Ellipse 182" class="cls-6" cx="0.576" cy="0.615" rx="0.576" ry="0.615" transform="translate(53.029 578.871)"/>
    <ellipse id="Ellipse_183" data-name="Ellipse 183" class="cls-6" cx="3.458" cy="2.458" rx="3.458" ry="2.458" transform="translate(210.963 610.826)"/>
    <ellipse id="Ellipse_184" data-name="Ellipse 184" class="cls-6" cx="2.306" cy="2.458" rx="2.306" ry="2.458" transform="translate(171.768 560.436)"/>
    <ellipse id="Ellipse_186" data-name="Ellipse 186" class="cls-6" cx="2.306" cy="2.458" rx="2.306" ry="2.458" transform="translate(605.223 349.043)"/>
    <ellipse id="Ellipse_187" data-name="Ellipse 187" class="cls-6" cx="3.458" cy="3.073" rx="3.458" ry="3.073" transform="translate(770.074 208.934)"/>
    <ellipse id="Ellipse_188" data-name="Ellipse 188" class="cls-6" cx="4.035" cy="3.073" rx="4.035" ry="3.073" transform="translate(787.366 158.544)"/>
    <ellipse id="Ellipse_189" data-name="Ellipse 189" class="cls-6" cx="2.882" cy="4.302" rx="2.882" ry="4.302" transform="translate(683.614 165.919)"/>
    <ellipse id="Ellipse_190" data-name="Ellipse 190" class="cls-6" cx="1.729" cy="2.458" rx="1.729" ry="2.458" transform="translate(730.879 115.528)"/>
    <ellipse id="Ellipse_191" data-name="Ellipse 191" class="cls-6" cx="1.153" cy="1.229" rx="1.153" ry="1.229" transform="translate(634.043 98.322)"/>
    <ellipse id="Ellipse_192" data-name="Ellipse 192" class="cls-6" cx="0.576" rx="0.576" transform="translate(542.972 86.032)"/>
    <ellipse id="Ellipse_193" data-name="Ellipse 193" class="cls-6" cx="0.576" cy="0.615" rx="0.576" ry="0.615" transform="translate(509.54 74.971)"/>
    <ellipse id="Ellipse_194" data-name="Ellipse 194" class="cls-6" cx="2.306" cy="1.844" rx="2.306" ry="1.844" transform="translate(435.761 89.719)"/>
    <ellipse id="Ellipse_195" data-name="Ellipse 195" class="cls-6" cx="2.306" cy="3.073" rx="2.306" ry="3.073" transform="translate(387.343 74.971)"/>
    <ellipse id="Ellipse_196" data-name="Ellipse 196" class="cls-6" cx="4.035" cy="3.687" rx="4.035" ry="3.687" transform="translate(304.341 95.864)"/>
    <ellipse id="Ellipse_197" data-name="Ellipse 197" class="cls-6" cx="1.153" cy="1.229" rx="1.153" ry="1.229" transform="translate(249.006 58.993)"/>
    <ellipse id="Ellipse_198" data-name="Ellipse 198" class="cls-6" cx="1.153" cy="1.229" rx="1.153" ry="1.229" transform="translate(265.145 124.132)"/>
    <ellipse id="Ellipse_202" data-name="Ellipse 202" class="cls-6" cx="3.458" cy="3.073" rx="3.458" ry="3.073" transform="translate(605.223 395.746)"/>
    <ellipse id="Ellipse_203" data-name="Ellipse 203" class="cls-6" cx="4.035" cy="3.687" rx="4.035" ry="3.687" transform="translate(683.614 489.152)"/>
    <ellipse id="Ellipse_204" data-name="Ellipse 204" class="cls-6" cx="1.153" cy="1.844" rx="1.153" ry="1.844" transform="translate(776.991 496.527)"/>
    <ellipse id="Ellipse_205" data-name="Ellipse 205" class="cls-6" cx="5.188" cy="6.76" rx="5.188" ry="6.76" transform="translate(738.948 395.746)"/>
    <ellipse id="Ellipse_206" data-name="Ellipse 206" class="cls-6" cx="4.611" cy="6.145" rx="4.611" ry="6.145" transform="translate(717.045 561.665)"/>
    <ellipse id="Ellipse_207" data-name="Ellipse 207" class="cls-6" cx="1.729" cy="1.229" rx="1.729" ry="1.229" transform="translate(820.798 534.626)"/>
    <ellipse id="Ellipse_208" data-name="Ellipse 208" class="cls-6" cx="2.882" cy="3.073" rx="2.882" ry="3.073" transform="translate(815.034 319.547)"/>
    <path id="Path_181" data-name="Path 181" class="cls-6" d="M300.624,861.2c6.72,0,14.252-.149,21.8-.564,0,0-9.135-.736-21.8-.8,2.847-3.062,5.943-6.548,8.921-10.223,0,0-4.081,3.92-9.483,9.61,0-7.161-.14-15.191-.525-23.237,0,0-.69,9.743-.755,23.237-2.869-3.036-6.139-6.333-9.589-9.507,0,0,3.677,4.348,9.014,10.107-6.686,0-14.2.219-21.8.808,0,0,9.194.507,21.8.56-2.866,3.069-5.99,6.532-9.014,10.111,0,0,4.146-3.8,9.586-9.511,0,7.128.2,15.141.759,23.24,0,0,.476-9.8.522-23.237,2.878,3.055,6.13,6.389,9.487,9.61C309.542,871.412,305.983,866.991,300.624,861.2Z" transform="translate(-191.338 -514.805)"/>
  </g>
</svg>
